<svg width="221" height="40" viewBox="0 0 221 40" version="1.1" xmlns="http://www.w3.org/2000/svg" xmlns:xlink="http://www.w3.org/1999/xlink">
<title>Group 3</title>
<desc>Created using Figma</desc>
<g id="Canvas" transform="translate(637 -664)">
<g id="Group 3">
<g id="Group 2.1">
<g id="Group">
<g id="Vector">
<use xlink:href="#path0_fill" transform="translate(-635.256 664)" fill="url(#paint0_linear)"/>
</g>
</g>
<g id="Group">
<g id="Vector">
<use xlink:href="#path1_fill" transform="translate(-635.525 666.646)" fill="#FFFFFF"/>
<mask id="mask0_outline_ins">
<use xlink:href="#path1_fill" fill="white" transform="translate(-635.525 666.646)"/>
</mask>
<g mask="url(#mask0_outline_ins)">
<use xlink:href="#path2_stroke_2x" transform="translate(-635.525 666.646)" fill="#FFFFFF"/>
</g>
</g>
</g>
<g id="Exclude">
<use xlink:href="#path3_fill" transform="translate(-637 665.526)" fill="url(#paint3_linear)"/>
</g>
<g id="Group">
<g id="Vector">
<use xlink:href="#path4_fill" transform="translate(-621.016 679.04)" fill="#FFFFFF"/>
</g>
</g>
</g>
<g id="missing persons africa">
<use xlink:href="#path5_fill" transform="translate(-587.776 676)" fill="#441F8B"/>
<use xlink:href="#path6_fill" transform="translate(-587.776 676)" fill="#441F8B"/>
<use xlink:href="#path7_fill" transform="translate(-587.776 676)" fill="#441F8B"/>
<use xlink:href="#path8_fill" transform="translate(-587.776 676)" fill="#441F8B"/>
<use xlink:href="#path9_fill" transform="translate(-587.776 676)" fill="#441F8B"/>
<use xlink:href="#path10_fill" transform="translate(-587.776 676)" fill="#441F8B"/>
<use xlink:href="#path11_fill" transform="translate(-587.776 676)" fill="#441F8B"/>
<use xlink:href="#path12_fill" transform="translate(-587.776 676)" fill="#441F8B"/>
<use xlink:href="#path13_fill" transform="translate(-587.776 676)" fill="#441F8B"/>
<use xlink:href="#path14_fill" transform="translate(-587.776 676)" fill="#441F8B"/>
<use xlink:href="#path15_fill" transform="translate(-587.776 676)" fill="#441F8B"/>
<use xlink:href="#path16_fill" transform="translate(-587.776 676)" fill="#441F8B"/>
<use xlink:href="#path17_fill" transform="translate(-587.776 676)" fill="#441F8B"/>
<use xlink:href="#path18_fill" transform="translate(-587.776 676)" fill="#441F8B"/>
<use xlink:href="#path19_fill" transform="translate(-587.776 676)" fill="#441F8B"/>
<use xlink:href="#path20_fill" transform="translate(-587.776 676)" fill="#441F8B"/>
<use xlink:href="#path21_fill" transform="translate(-587.776 676)" fill="#441F8B"/>
<use xlink:href="#path22_fill" transform="translate(-587.776 676)" fill="#441F8B"/>
<use xlink:href="#path23_fill" transform="translate(-587.776 676)" fill="#441F8B"/>
<use xlink:href="#path24_fill" transform="translate(-587.776 676)" fill="#441F8B"/>
</g>
</g>
</g>
<defs>
<linearGradient id="paint0_linear" x1="0" y1="0" x2="1" y2="0" gradientUnits="userSpaceOnUse" gradientTransform="matrix(2.44929e-15 40 -40 2.44929e-15 40 -2.44929e-15)">
<stop offset="0" stop-color="#4036AA"/>
<stop offset="1" stop-color="#441A84"/>
</linearGradient>
<linearGradient id="paint3_linear" x1="0" y1="0" x2="1" y2="0" gradientUnits="userSpaceOnUse" gradientTransform="matrix(8.74359 19.5274 -19.5274 8.74359 13.9223 -6.30936)">
<stop offset="0" stop-color="#3E3EB4"/>
<stop offset="1" stop-color="#441F8B"/>
</linearGradient>
<path id="path0_fill" d="M 20 40C 31.0559 40 40 31.0559 40 20C 40 8.9441 31.0559 0 20 0C 8.9441 0 0 8.9441 0 20C 8.82662e-15 31.0559 8.9441 40 20 40Z"/>
<path id="path1_fill" d="M 8 16C 12.4224 16 16 12.4224 16 8C 16 3.57764 12.4224 0 8 0C 3.57764 0 0 3.57764 0 8C 3.53065e-15 12.4224 3.57764 16 8 16Z"/>
<path id="path2_stroke_2x" d="M 0 8L -5 8L 0 8ZM 8 21C 15.1838 21 21 15.1838 21 8L 11 8C 11 9.66094 9.66094 11 8 11L 8 21ZM 21 8C 21 0.816217 15.1838 -5 8 -5L 8 5C 9.66094 5 11 6.33906 11 8L 21 8ZM 8 -5C 0.816215 -5 -5 0.816217 -5 8L 5 8C 5 6.33906 6.33906 5 8 5L 8 -5ZM -5 8C -5 15.1838 0.816216 21 8 21L 8 11C 6.33906 11 5 9.66094 5 8L -5 8Z"/>
<path id="path3_fill" fill-rule="evenodd" d="M 16 8C 16 12.4224 12.4224 16 8 16C 3.57764 16 0 12.4224 0 8C 0 3.57764 3.57764 0 8 0C 12.4224 0 16 3.57764 16 8ZM 7.05624 8.74536C 7.03177 8.94617 7.19849 9.11255 7.40073 9.11255C 7.60062 9.11255 7.7569 8.94891 7.79306 8.75232C 7.83322 8.53406 7.91315 8.35449 8.03284 8.21356C 8.04453 8.19983 8.0571 8.18683 8.06992 8.17413L 8.37881 7.86804C 8.44678 7.80072 8.51465 7.73303 8.57767 7.66107C 8.93921 7.24823 9.12 6.82977 9.12 6.40576C 9.12 5.95972 8.992 5.60535 8.73608 5.34277C 8.71362 5.31976 8.6904 5.29736 8.66647 5.27582C 8.39297 5.02954 8.01804 4.90637 7.54169 4.90637C 7.06308 4.90637 6.67386 5.03784 6.37402 5.30072L 6.37347 5.30121C 6.16623 5.48285 6.03 5.70483 5.96478 5.9671C 5.91599 6.16321 6.08514 6.33081 6.28723 6.33081C 6.48755 6.33081 6.63705 6.15924 6.72446 5.97894C 6.76477 5.89575 6.8215 5.82233 6.89459 5.75867C 7.05768 5.61658 7.27338 5.54559 7.54169 5.54559C 7.7998 5.54559 8.00049 5.6145 8.14374 5.75238C 8.16388 5.77173 8.18283 5.7923 8.20065 5.81378C 8.3269 5.96619 8.39001 6.17145 8.39001 6.42944C 8.39001 6.64703 8.32639 6.854 8.19916 7.05035C 8.1217 7.16986 8.02188 7.27246 7.92249 7.37469L 7.89719 7.4007L 7.64062 7.6651C 7.57468 7.73303 7.50879 7.80127 7.44788 7.87378C 7.29712 8.05322 7.19424 8.21887 7.13922 8.37073C 7.10172 8.47424 7.07407 8.59912 7.05624 8.74536ZM 7.10178 10.0741C 7.03467 10.1519 7.00113 10.2483 7.00113 10.3633C 7.00113 10.4154 7.008 10.4637 7.02176 10.5081C 7.05627 10.6198 7.14468 10.7136 7.25592 10.7492C 7.30704 10.7655 7.36545 10.7737 7.43121 10.7737C 7.53552 10.7737 7.6214 10.7531 7.68884 10.712C 7.737 10.6826 7.77664 10.6403 7.80582 10.592C 7.84543 10.5264 7.86523 10.4501 7.86523 10.3633C 7.86523 10.2754 7.84491 10.1984 7.80426 10.1322C 7.77576 10.0858 7.73837 10.0444 7.69324 10.014C 7.62515 9.96808 7.53781 9.94507 7.43121 9.94507C 7.293 9.94507 7.18716 9.9837 7.11371 10.0609C 7.10962 10.0652 7.10565 10.0696 7.10178 10.0741Z"/>
<path id="path4_fill" d="M 1.76 1.72187e-06C 0.793263 1.72187e-06 0 0.793091 0 1.75962L 0 9.7579C 0 10.7244 0.793263 11.5175 1.76 11.5175L 4.165 11.5175L 5.32 14.112C 5.35735 14.1976 5.41888 14.2704 5.49704 14.3216C 5.57519 14.3727 5.66658 14.4 5.76 14.4C 5.85342 14.4 5.94481 14.3727 6.02296 14.3216C 6.10112 14.2704 6.16265 14.1976 6.2 14.112L 7.355 11.5175L 9.76 11.5175C 10.7267 11.5175 11.52 10.7244 11.52 9.7579L 11.52 1.75962C 11.52 0.793091 10.7267 1.72187e-06 9.76 1.72187e-06L 1.76 1.72187e-06ZM 1.76 0.959797L 9.76 0.959797C 10.2115 0.959797 10.56 1.30821 10.56 1.75962L 10.56 9.7579C 10.56 10.2093 10.2115 10.5577 9.76 10.5577L 7.04 10.5577C 6.94692 10.5575 6.85578 10.5843 6.77766 10.6348C 6.69954 10.6854 6.63782 10.7576 6.6 10.8427L 5.76 12.7323L 4.92 10.8427C 4.88218 10.7576 4.82046 10.6854 4.74234 10.6348C 4.66422 10.5843 4.57308 10.5575 4.48 10.5577L 1.76 10.5577C 1.3085 10.5577 0.96 10.2093 0.96 9.7579L 0.96 1.75962C 0.96 1.30821 1.3085 0.959797 1.76 0.959797ZM 5.76 2.39948C 4.61693 2.39948 3.68 3.33621 3.68 4.47903C 3.68 4.83245 3.77429 5.16175 3.935 5.45383C 2.97209 6.13001 2.4 7.34095 2.4 8.63814C 2.40001 8.76541 2.45059 8.88748 2.5406 8.97747C 2.63061 9.06747 2.7527 9.11804 2.88 9.11805L 8.64 9.11805C 8.7673 9.11804 8.88938 9.06747 8.9794 8.97747C 9.06941 8.88748 9.11999 8.76541 9.12 8.63814C 9.12 7.34095 8.54791 6.13001 7.585 5.45383C 7.74571 5.16175 7.84 4.83245 7.84 4.47903C 7.84 3.33621 6.90307 2.39948 5.76 2.39948ZM 5.76 3.35928C 6.38424 3.35928 6.88 3.85492 6.88 4.47903C 6.88 4.84723 6.79864 5.02441 6.56 5.23887C 6.50058 5.29233 6.45545 5.35979 6.42871 5.43511C 6.40197 5.51043 6.39447 5.59123 6.40689 5.67019C 6.41931 5.74914 6.45125 5.82374 6.49981 5.88722C 6.54838 5.9507 6.61203 6.00105 6.685 6.0337C 7.41627 6.35967 7.95603 7.18613 8.1 8.15825L 3.42 8.15825C 3.56397 7.18613 4.10373 6.35967 4.835 6.0337C 4.90796 6.00105 4.97162 5.9507 5.02019 5.88722C 5.06875 5.82374 5.10069 5.74914 5.11311 5.67019C 5.12553 5.59123 5.11803 5.51043 5.09129 5.43511C 5.06455 5.35979 5.01942 5.29233 4.96 5.23887C 4.72136 5.02441 4.64 4.84723 4.64 4.47903C 4.64 3.85492 5.13576 3.35928 5.76 3.35928Z"/>
<path id="path5_fill" d="M 13.086 6.894C 13.086 4.842 11.97 3.366 9.882 3.366C 8.55 3.366 7.434 3.96 6.876 5.076C 6.444 4.05 5.454 3.366 4.05 3.366C 2.754 3.366 1.764 4.14 1.404 4.95C 1.404 4.95 1.404 4.464 1.404 3.6L 0 3.6L 0 12.96L 1.422 12.96L 1.422 7.29C 1.422 5.706 2.448 4.662 3.69 4.662C 5.004 4.662 5.832 5.562 5.832 7.056L 5.832 12.96L 7.254 12.96L 7.254 7.344C 7.254 5.598 8.244 4.662 9.558 4.662C 10.944 4.662 11.664 5.562 11.664 7.326L 11.664 12.96L 13.086 12.96L 13.086 6.894Z"/>
<path id="path6_fill" d="M 15.4688 12.96L 16.8908 12.96L 16.8908 3.6L 15.4688 3.6L 15.4688 12.96ZM 15.1987 1.188C 15.1987 1.746 15.6307 2.178 16.1707 2.178C 16.7288 2.178 17.1607 1.746 17.1607 1.188C 17.1607 0.648 16.7288 0.216 16.1707 0.216C 15.6307 0.216 15.1987 0.648 15.1987 1.188Z"/>
<path id="path7_fill" d="M 18.6339 11.196C 19.0479 12.078 19.9299 13.194 21.8919 13.194C 23.7099 13.194 25.0779 12.078 25.0779 10.422C 25.0779 7.164 20.3619 7.956 20.3619 5.85C 20.3619 5.04 21.0459 4.554 21.9099 4.554C 23.1159 4.554 23.6019 5.256 23.8539 5.76L 24.8979 5.166C 24.6459 4.464 23.7459 3.366 21.9999 3.366C 20.3079 3.366 18.9939 4.32 18.9939 5.904C 18.9939 9.072 23.6919 8.334 23.6919 10.494C 23.6919 11.448 22.8999 11.988 21.9639 11.988C 20.6859 11.988 20.0199 11.286 19.6239 10.548L 18.6339 11.196Z"/>
<path id="path8_fill" d="M 26.1398 11.196C 26.5538 12.078 27.4358 13.194 29.3978 13.194C 31.2158 13.194 32.5838 12.078 32.5838 10.422C 32.5838 7.164 27.8678 7.956 27.8678 5.85C 27.8678 5.04 28.5518 4.554 29.4158 4.554C 30.6218 4.554 31.1078 5.256 31.3598 5.76L 32.4038 5.166C 32.1518 4.464 31.2518 3.366 29.5058 3.366C 27.8138 3.366 26.4998 4.32 26.4998 5.904C 26.4998 9.072 31.1978 8.334 31.1978 10.494C 31.1978 11.448 30.4058 11.988 29.4698 11.988C 28.1918 11.988 27.5258 11.286 27.1298 10.548L 26.1398 11.196Z"/>
<path id="path9_fill" d="M 34.3477 12.96L 35.7697 12.96L 35.7697 3.6L 34.3477 3.6L 34.3477 12.96ZM 34.0777 1.188C 34.0777 1.746 34.5097 2.178 35.0497 2.178C 35.6077 2.178 36.0397 1.746 36.0397 1.188C 36.0397 0.648 35.6077 0.216 35.0497 0.216C 34.5097 0.216 34.0777 0.648 34.0777 1.188Z"/>
<path id="path10_fill" d="M 42.4088 3.366C 41.1128 3.366 40.0688 4.104 39.6188 4.95L 39.6188 3.6L 38.2148 3.6L 38.2148 12.96L 39.6368 12.96L 39.6368 7.272C 39.6368 5.724 40.6268 4.662 42.0668 4.662C 43.3448 4.662 44.2808 5.562 44.2808 7.056L 44.2808 12.96L 45.7028 12.96L 45.7028 7.11C 45.7028 4.986 44.5868 3.366 42.4088 3.366Z"/>
<path id="path11_fill" d="M 48.5802 15.48C 49.3902 15.984 50.7042 16.416 51.9282 16.416C 54.6282 16.416 56.6262 15.21 56.6262 11.664L 56.6262 3.6L 55.2582 3.6L 55.2582 5.112C 54.9522 4.608 53.8902 3.366 51.9462 3.366C 49.3002 3.366 47.4462 5.418 47.4462 8.298C 47.4462 11.16 49.2822 13.194 51.9642 13.194C 54.0162 13.194 54.9882 11.826 55.2042 11.484L 55.2042 12.312C 55.2042 14.4 53.6922 15.138 51.9102 15.138C 50.5602 15.138 49.4442 14.58 49.0842 14.364L 48.5802 15.48ZM 55.2582 8.298C 55.2582 10.314 54.0162 11.898 52.0902 11.898C 50.2902 11.898 48.8862 10.476 48.8862 8.298C 48.8862 6.156 50.2362 4.662 52.0542 4.662C 53.8362 4.662 55.2582 6.03 55.2582 8.298Z"/>
<path id="path12_fill" d="M 63.5801 16.326L 65.0021 16.326L 65.0021 11.448C 65.2901 11.934 66.3521 13.194 68.3141 13.194C 70.9601 13.194 72.7781 11.16 72.7781 8.262C 72.7781 5.4 70.8701 3.366 68.2061 3.366C 66.1721 3.366 65.1821 4.734 64.9481 5.076L 64.9481 3.6L 63.5801 3.6L 63.5801 16.326ZM 64.9481 8.262C 64.9481 6.3 66.1721 4.662 68.1161 4.662C 69.9161 4.662 71.3201 6.066 71.3201 8.262C 71.3201 10.404 69.9881 11.898 68.1521 11.898C 66.3881 11.898 64.9481 10.566 64.9481 8.262Z"/>
<path id="path13_fill" d="M 74.0071 8.316C 74.0071 11.196 75.9691 13.194 78.8131 13.194C 80.9371 13.194 82.1611 12.042 82.6831 11.16L 81.7471 10.476C 81.2971 11.106 80.4151 11.934 78.8311 11.934C 76.8871 11.934 75.4831 10.674 75.4651 8.586L 82.9711 8.586C 82.9891 8.406 82.9891 8.208 82.9891 8.154C 82.9891 5.346 81.2971 3.366 78.5431 3.366C 76.0591 3.366 74.0071 5.328 74.0071 8.316ZM 75.5371 7.524C 75.6451 5.76 77.0131 4.59 78.5431 4.59C 80.0911 4.59 81.4411 5.58 81.5311 7.524L 75.5371 7.524Z"/>
<path id="path14_fill" d="M 88.9909 3.366C 87.5689 3.366 86.5249 4.23 86.2009 5.166L 86.2009 3.6L 84.7969 3.6L 84.7969 12.96L 86.2189 12.96L 86.2189 8.478C 86.2189 6.48 86.8489 4.788 88.9909 4.788L 88.9909 3.366Z"/>
<path id="path15_fill" d="M 89.8781 11.196C 90.2921 12.078 91.1741 13.194 93.1361 13.194C 94.9541 13.194 96.3221 12.078 96.3221 10.422C 96.3221 7.164 91.6061 7.956 91.6061 5.85C 91.6061 5.04 92.2901 4.554 93.1541 4.554C 94.3601 4.554 94.8461 5.256 95.0981 5.76L 96.1421 5.166C 95.8901 4.464 94.9901 3.366 93.2441 3.366C 91.5521 3.366 90.2381 4.32 90.2381 5.904C 90.2381 9.072 94.9361 8.334 94.9361 10.494C 94.9361 11.448 94.1441 11.988 93.2081 11.988C 91.9301 11.988 91.2641 11.286 90.8681 10.548L 89.8781 11.196Z"/>
<path id="path16_fill" d="M 98.9139 8.28C 98.9139 6.228 100.318 4.662 102.334 4.662C 104.35 4.662 105.79 6.21 105.79 8.28C 105.79 10.368 104.35 11.898 102.334 11.898C 100.336 11.898 98.9139 10.386 98.9139 8.28ZM 97.4559 8.28C 97.4559 11.124 99.5259 13.194 102.334 13.194C 105.142 13.194 107.23 11.088 107.23 8.28C 107.23 5.472 105.178 3.366 102.352 3.366C 99.5619 3.366 97.4559 5.454 97.4559 8.28Z"/>
<path id="path17_fill" d="M 113.249 3.366C 111.953 3.366 110.909 4.104 110.459 4.95L 110.459 3.6L 109.055 3.6L 109.055 12.96L 110.477 12.96L 110.477 7.272C 110.477 5.724 111.467 4.662 112.907 4.662C 114.185 4.662 115.121 5.562 115.121 7.056L 115.121 12.96L 116.543 12.96L 116.543 7.11C 116.543 4.986 115.427 3.366 113.249 3.366Z"/>
<path id="path18_fill" d="M 118.214 11.196C 118.628 12.078 119.51 13.194 121.472 13.194C 123.29 13.194 124.658 12.078 124.658 10.422C 124.658 7.164 119.942 7.956 119.942 5.85C 119.942 5.04 120.626 4.554 121.49 4.554C 122.696 4.554 123.182 5.256 123.434 5.76L 124.478 5.166C 124.226 4.464 123.326 3.366 121.58 3.366C 119.888 3.366 118.574 4.32 118.574 5.904C 118.574 9.072 123.272 8.334 123.272 10.494C 123.272 11.448 122.48 11.988 121.544 11.988C 120.266 11.988 119.6 11.286 119.204 10.548L 118.214 11.196Z"/>
<path id="path19_fill" d="M 130.38 10.08C 130.38 11.898 131.892 13.194 133.944 13.194C 135.204 13.194 135.996 12.726 136.482 12.168L 136.644 12.96L 137.868 12.96L 137.868 6.786C 137.868 4.788 136.86 3.366 134.304 3.366C 132.72 3.366 131.478 3.996 130.848 4.392L 131.424 5.436C 132.09 5.04 133.026 4.626 134.178 4.626C 135.564 4.626 136.446 5.382 136.446 6.696L 136.446 7.848C 136.068 7.452 135.168 7.002 133.98 7.002C 131.874 7.002 130.38 8.298 130.38 10.08ZM 131.82 10.062C 131.82 8.964 132.738 8.136 134.16 8.136C 135.564 8.136 136.5 8.892 136.5 10.062C 136.5 11.196 135.546 12.006 134.178 12.006C 132.738 12.006 131.82 11.142 131.82 10.062Z"/>
<path id="path20_fill" d="M 140.456 12.96L 141.896 12.96L 141.896 4.806L 143.894 4.806L 143.894 3.6L 141.896 3.6L 141.896 3.114C 141.896 1.818 142.472 1.242 143.534 1.242C 143.75 1.242 143.984 1.278 143.984 1.278L 143.984 0.036C 143.984 0.036 143.696 0 143.39 0C 141.878 0 140.456 0.756 140.456 3.114L 140.456 3.6L 139.412 3.6L 139.412 4.806L 140.456 4.806L 140.456 12.96Z"/>
<path id="path21_fill" d="M 149.653 3.366C 148.231 3.366 147.187 4.23 146.863 5.166L 146.863 3.6L 145.459 3.6L 145.459 12.96L 146.881 12.96L 146.881 8.478C 146.881 6.48 147.511 4.788 149.653 4.788L 149.653 3.366Z"/>
<path id="path22_fill" d="M 151.242 12.96L 152.664 12.96L 152.664 3.6L 151.242 3.6L 151.242 12.96ZM 150.972 1.188C 150.972 1.746 151.404 2.178 151.944 2.178C 152.502 2.178 152.934 1.746 152.934 1.188C 152.934 0.648 152.502 0.216 151.944 0.216C 151.404 0.216 150.972 0.648 150.972 1.188Z"/>
<path id="path23_fill" d="M 162.561 4.644C 162.075 4.176 160.977 3.366 159.267 3.366C 156.549 3.366 154.479 5.508 154.479 8.28C 154.479 11.052 156.495 13.194 159.285 13.194C 161.031 13.194 162.183 12.258 162.561 11.862L 162.129 10.656C 161.751 11.034 160.815 11.898 159.339 11.898C 157.413 11.898 155.955 10.296 155.955 8.28C 155.955 6.246 157.341 4.68 159.303 4.68C 160.725 4.68 161.697 5.472 162.075 5.868L 162.561 4.644Z"/>
<path id="path24_fill" d="M 163.708 10.08C 163.708 11.898 165.22 13.194 167.272 13.194C 168.532 13.194 169.324 12.726 169.81 12.168L 169.972 12.96L 171.196 12.96L 171.196 6.786C 171.196 4.788 170.188 3.366 167.632 3.366C 166.048 3.366 164.806 3.996 164.176 4.392L 164.752 5.436C 165.418 5.04 166.354 4.626 167.506 4.626C 168.892 4.626 169.774 5.382 169.774 6.696L 169.774 7.848C 169.396 7.452 168.496 7.002 167.308 7.002C 165.202 7.002 163.708 8.298 163.708 10.08ZM 165.148 10.062C 165.148 8.964 166.066 8.136 167.488 8.136C 168.892 8.136 169.828 8.892 169.828 10.062C 169.828 11.196 168.874 12.006 167.506 12.006C 166.066 12.006 165.148 11.142 165.148 10.062Z"/>
</defs>
</svg>
