<svg width="204" height="258" viewBox="0 0 204 258" version="1.1" xmlns="http://www.w3.org/2000/svg" xmlns:xlink="http://www.w3.org/1999/xlink">
<title>Group</title>
<desc>Created using Figma</desc>
<g id="Canvas" transform="matrix(2 0 0 2 -2676 -18594)">
<g id="Group">
<g id="Vector">
<use xlink:href="#path0_fill" transform="translate(1338.42 9380.36)" fill="#AF3B82"/>
</g>
<g id="Vector">
<use xlink:href="#path1_fill" transform="translate(1338.42 9392.24)" fill="#AF3B82"/>
</g>
<g id="Vector">
<use xlink:href="#path2_fill" transform="translate(1369.09 9350.9)" fill="#AF3B82"/>
</g>
<g id="Vector">
<use xlink:href="#path3_fill" transform="translate(1390.03 9297.2)" fill="#AF543B"/>
</g>
<g id="Vector">
<use xlink:href="#path4_fill" transform="translate(1400.34 9307.52)" fill="#9DD7CD"/>
</g>
</g>
</g>
<defs>
<path id="path0_fill" fill-rule="evenodd" d="M 16.7236 0.176581L 1.82855 2.04705C 1.55734 2.07827 1.29502 2.16327 1.05676 2.29654C 0.8185 2.42982 0.609038 2.609 0.440491 2.82376C 0.271944 3.03852 0.147659 3.28444 0.074829 3.54755C 0.00199881 3.81066 -0.0179297 4.08566 0.0161938 4.35652C 0.0503173 4.62738 0.137816 4.88886 0.273629 5.12568C 0.409441 5.3625 0.590869 5.56982 0.807415 5.73606C 1.02396 5.9023 1.27133 6.02391 1.53519 6.09392C 1.79906 6.16394 2.0742 6.18084 2.34468 6.14382L 17.2398 4.27336C 21.19 3.77787 25.1861 4.58298 28.6433 6.56368L 41.6754 14.0314C 41.9873 14.2099 42.3404 14.3035 42.6998 14.3036L 58.2237 14.3036C 60.5166 14.3036 62.3491 16.114 62.3771 18.4246C 62.377 18.4383 62.377 18.4521 62.3771 18.4659L 62.4184 20.1353C 62.4597 22.4042 60.6694 24.1998 58.4186 24.1998L 34.7733 24.1998C 34.4997 24.1959 34.2281 24.2465 33.9742 24.3485C 33.7204 24.4505 33.4893 24.6019 33.2945 24.794C 33.0996 24.9861 32.9449 25.215 32.8393 25.4674C 32.7337 25.7198 32.6794 25.9907 32.6794 26.2643C 32.6794 26.5379 32.7337 26.8088 32.8393 27.0612C 32.9449 27.3136 33.0996 27.5425 33.2945 27.7346C 33.4893 27.9267 33.7204 28.0781 33.9742 28.1801C 34.2281 28.2821 34.4997 28.3327 34.7733 28.3288L 58.4186 28.3288C 62.9259 28.3288 66.6024 24.5894 66.5475 20.0788C 66.5476 20.065 66.5476 20.0512 66.5475 20.0375L 66.5062 18.3757C 66.4525 13.8585 62.7376 10.1746 58.2237 10.1746L 43.256 10.1746L 30.6996 2.98102C 26.4665 0.554384 21.5624 -0.432495 16.7236 0.17406L 16.7236 0.176581Z"/>
<path id="path1_fill" fill-rule="evenodd" d="M 90.9501 0.313371C 89.0578 -0.237442 87.1861 -0.000407619 85.603 0.548754C 81.0037 2.13678 76.4758 3.78045 71.9338 5.38747C 71.6781 5.47799 71.4426 5.61824 71.241 5.79977C 71.0393 5.98129 70.8754 6.20055 70.7585 6.44543C 70.6417 6.69031 70.5743 6.95573 70.56 7.22668C 70.5458 7.49764 70.5851 7.7688 70.6757 8.02457C 70.7662 8.28033 70.9063 8.51597 71.0878 8.71761C 71.2694 8.91924 71.4889 9.08266 71.7338 9.19946C 71.9787 9.31627 72.2442 9.38387 72.5151 9.39805C 72.7861 9.41224 73.0572 9.37272 73.3129 9.28213C 77.8739 7.6685 82.3894 6.0268 86.9499 4.45198C 87.9285 4.1134 88.9434 4.0259 89.7969 4.27406C 90.6499 4.5218 91.4629 5.05074 92.2483 6.47567C 93.0683 7.96378 92.207 11.0831 90.216 11.9762L 59.9336 25.4676C 52.1777 28.9261 43.51 29.7485 35.2482 27.7988L 2.62717 20.0972C 2.35873 20.0212 2.07768 20.0005 1.80098 20.0362C 1.52427 20.0718 1.25766 20.1628 1.01724 20.3043C 0.776822 20.4458 0.567581 20.6346 0.402151 20.8593C 0.236721 21.0839 0.118534 21.3402 0.0547268 21.6118C -0.00908054 21.8834 -0.0171848 22.1651 0.0309034 22.4399C 0.0789917 22.7147 0.182274 22.9768 0.334516 23.2106C 0.486758 23.4444 0.6848 23.6447 0.916686 23.7998C 1.14857 23.9549 1.40949 24.0618 1.68369 24.1133L 34.3047 31.8149C 43.4452 33.9719 53.0381 33.0683 61.6191 29.2423L 91.8936 15.7423C 96.2902 13.781 98.0413 8.44027 95.8612 4.48424C 94.6435 2.27438 92.842 0.865605 90.9501 0.314379L 90.9501 0.313371Z"/>
<path id="path2_fill" d="M 12.3833 -0.000233871C 9.20558 -0.000233871 6.03077 1.20764 3.61858 3.62023C -1.20619 8.4446 -1.20619 16.3332 3.61858 21.1575C 8.44295 25.9819 16.3311 25.9819 21.1558 21.1575C 25.9802 16.3332 25.9802 8.4446 21.1558 3.62023C 18.7437 1.20764 15.5606 -0.000233871 12.3833 -0.000233871ZM 12.3833 4.1036C 14.4953 4.1036 16.6135 4.91596 18.237 6.53909C 21.4837 9.78575 21.4837 14.9921 18.237 18.2392C 14.9904 21.4854 9.78406 21.4854 6.53698 18.2392C 3.29074 14.9921 3.29074 9.78575 6.53698 6.53909C 8.16093 4.91596 10.2713 4.1036 12.3833 4.1036Z"/>
<path id="path3_fill" d="M 24.7704 -7.17742e-05C 18.4224 -7.17742e-05 12.0782 2.41889 7.24677 7.25069C -2.41559 16.9139 -2.41559 32.6381 7.24677 42.3009C 16.9095 51.9645 32.6391 51.9645 42.3019 42.3009C 51.9642 32.6381 51.9642 16.9139 42.3019 7.25069C 37.4701 2.41889 31.118 -7.17742e-05 24.7704 -7.17742e-05ZM 24.7704 4.10502C 30.0527 4.10502 35.3403 6.12715 39.3822 10.1703C 47.4669 18.2554 47.4669 31.2964 39.3822 39.3815C 31.2976 47.467 18.2507 47.467 10.1664 39.3815C 2.08176 31.2964 2.08176 18.2554 10.1664 10.1703C 14.2083 6.12715 19.4877 4.10502 24.7704 4.10502Z"/>
<path id="path4_fill" d="M 14.4594 0.000110484C 10.7532 0.000110484 7.04946 1.40983 4.23387 4.22542C 1.4187 7.04183 0.000368788 10.753 0.000368788 14.4522C -0.00482432 14.7266 0.0447353 14.9996 0.146144 15.2547C 0.247554 15.5097 0.398781 15.7417 0.590985 15.9376C 0.783188 16.1335 1.01251 16.2891 1.26555 16.3953C 1.51858 16.5015 1.79026 16.5566 2.06468 16.5566C 2.33911 16.5566 2.61078 16.5015 2.86382 16.3953C 3.11685 16.2891 3.34617 16.1335 3.53838 15.9376C 3.73058 15.7417 3.88181 15.5097 3.98322 15.2547C 4.08463 14.9996 4.13419 14.7266 4.12899 14.4522C 4.12899 11.8035 5.12657 9.17231 7.1531 7.14578C 11.2062 3.09148 17.7123 3.09148 21.7653 7.14578C 25.8184 11.1993 25.8184 17.7053 21.7653 21.7592C 17.7123 25.8127 11.2062 25.8127 7.1531 21.7592C 6.96288 21.561 6.73503 21.4025 6.48287 21.2935C 6.23072 21.1844 5.95934 21.1269 5.68464 21.1241C 5.40993 21.1213 5.13742 21.1735 4.88307 21.2773C 4.62873 21.3812 4.39766 21.5347 4.20341 21.729C 4.00916 21.9232 3.85563 22.154 3.75181 22.4084C 3.648 22.6628 3.59598 22.9356 3.59882 23.2103C 3.60165 23.485 3.65928 23.7565 3.76833 24.0087C 3.87737 24.2609 4.03565 24.4888 4.23387 24.6791C 9.86505 30.3107 19.053 30.3107 24.6846 24.6791C 30.3153 19.0471 30.3153 9.85742 24.6846 4.22542C 21.869 1.40983 18.1648 0.000110484 14.4594 0.000110484Z"/>
</defs>
</svg>
