<svg width="264" height="202" viewBox="0 0 264 202" version="1.1" xmlns="http://www.w3.org/2000/svg" xmlns:xlink="http://www.w3.org/1999/xlink">
<title>Group</title>
<desc>Created using Figma</desc>
<g id="Canvas" transform="matrix(2 0 0 2 -1886 -18622)">
<g id="Group">
<g id="Vector">
<use xlink:href="#path0_fill" transform="translate(975.839 9311.2)" fill="#432492"/>
</g>
<g id="Vector">
<use xlink:href="#path1_fill" transform="translate(943.559 9358)" fill="#910C63"/>
</g>
<g id="Vector">
<use xlink:href="#path2_fill" transform="translate(1034.32 9358)" fill="#CA642D"/>
</g>
</g>
</g>
<defs>
<path id="path0_fill" d="M 48.2826 11.2C 47.0826 11.2 46.0826 11.6 45.0826 12.2L 45.0826 10.4C 45.0826 8.8 44.4826 7.2 43.2826 6C 42.0826 4.8 40.6826 4.2 38.8826 4.2C 37.6826 4.2 36.4826 4.6 35.6826 5.2C 35.4826 4 34.8826 2.8 33.8826 1.8C 32.6826 0.599999 31.0826 0 29.4826 0C 26.0826 0 23.2826 2.8 23.2826 6.2L 23.2826 7.8C 22.2826 7.2 21.2826 6.8 20.0826 6.8C 17.0826 6.8 14.6826 8.8 14.0826 11.6L 13.8826 11.6L 13.8826 12.8L 13.8826 13L 14.0826 28.2L 14.0826 36L 12.6826 33.8C 12.0826 32.6 11.2826 31.6 10.6826 30.8C 8.28259 28 4.68259 28.4 2.48259 29.8C -0.117408 31.6 -0.71741 34.8 0.88259 37.6L 16.4826 62.4L 16.4826 72.4L 19.4826 72.4L 19.4826 61.6L 3.48259 36C 2.48259 34.4 3.28259 32.8 4.28259 32.2C 5.48259 31.4 7.08259 31.2 8.48259 32.6C 9.08259 33.2 9.68259 34 10.2826 35L 13.8826 41C 14.2826 41.6 15.0826 42 15.8826 41.8C 16.6826 41.6 17.2826 40.8 17.2826 40L 17.2826 33.8L 17.2826 27.8L 17.2826 13C 17.4826 11.4 18.6826 10 20.4826 10C 22.2826 10 23.6826 11.4 23.6826 13L 23.8826 27.4L 23.8826 34.2L 26.8826 34.2L 26.6826 13L 26.6826 6.2C 26.6826 4.4 28.0826 3 29.8826 3C 30.6826 3 31.4826 3.4 32.0826 4C 32.6826 4.6 33.0826 5.4 33.0826 6.2L 33.2826 27.4L 33.2826 31.6L 36.2826 31.6L 36.0826 10.4C 36.0826 8.6 37.4826 7.2 39.2826 7.2C 40.0826 7.2 40.8826 7.6 41.4826 8.2C 42.0826 8.8 42.4826 9.6 42.4826 10.4L 42.6826 31.6L 42.6826 38.6L 45.6826 38.6L 45.4826 17.4C 45.4826 15.6 46.8826 14.2 48.6826 14.2C 50.4826 14.2 51.8826 15.6 51.8826 17.4L 51.8826 50.4C 51.8826 53 51.0826 59.8 47.4826 60.8L 46.0826 61.2L 46.2826 69.8L 49.2826 69.8L 49.0826 63.4C 54.6826 60.6 54.6826 51 54.6826 50.6L 54.6826 17.6C 54.4826 13.8 51.6826 11.2 48.2826 11.2Z"/>
<path id="path1_fill" d="M 35.163 7.8C 34.363 7.8 33.763 8 33.163 8.2L 33.163 7.6C 33.163 6.2 32.563 5 31.763 4.2C 30.763 3.2 29.563 2.8 28.363 2.8C 27.563 2.8 26.963 3 26.163 3.4C 25.963 2.6 25.563 2 24.963 1.4C 23.963 0.400001 22.763 -7.62939e-07 21.563 -7.62939e-07C 18.963 -7.62939e-07 16.763 2.2 16.763 5L 16.763 5.4C 16.163 5.2 15.563 5 14.963 5C 12.563 5 10.763 6.6 10.163 9L 10.163 9.8L 10.163 10L 10.163 20.4L 10.163 25.2L 9.96299 24.8C 9.56299 24 8.96299 23.2 8.36299 22.6C 6.56299 20.4 3.76299 20.6 1.96299 21.8C -0.0370063 23.2 -0.637006 25.8 0.762994 28.2L 11.963 46L 11.963 53.2L 14.963 53.2L 14.963 45.2L 3.36299 26.6C 2.56299 25.4 3.56299 24.6 3.76299 24.4C 4.36299 24 5.36299 23.8 6.16299 24.6C 6.36299 25 6.76299 25.6 7.36299 26.2L 9.96299 30.6C 10.363 31.2 11.163 31.6 11.963 31.4C 12.763 31.2 13.163 30.6 13.163 29.8L 13.163 25.2L 13.163 20.2L 13.163 9.8C 13.163 8.8 13.963 8 14.963 8C 15.563 8 15.963 8.2 16.363 8.6C 16.763 9 16.963 9.4 16.963 10L 16.963 20.4L 16.963 25.4L 19.963 25.4L 19.763 10L 19.763 5.2C 19.763 4.2 20.563 3.4 21.563 3.2C 22.163 3.2 22.563 3.4 22.963 3.8C 23.363 4.2 23.563 4.6 23.563 5.2L 23.763 20.6L 23.763 23.6L 26.763 23.6L 26.363 7.8C 26.363 7.2 26.563 6.8 26.963 6.4C 27.363 6 27.763 5.8 28.363 5.8C 28.763 5.8 29.363 6 29.763 6.4C 30.163 6.8 30.363 7.2 30.363 7.8L 30.563 23.2L 30.563 28.4L 33.563 28.4L 33.363 13C 33.363 12 34.163 11.2 35.163 11C 36.163 11 36.963 11.8 36.963 12.8L 36.963 36.8C 36.963 38.4 36.363 43.2 33.963 44L 32.963 44.2L 33.163 50.8L 36.163 50.8L 36.163 46.4C 40.163 44.2 40.163 37.6 40.163 36.8L 40.163 12.8C 39.963 10 37.763 7.8 35.163 7.8Z"/>
<path id="path2_fill" d="M 38 21.8C 36.2 20.6 33.4 20.4 31.6 22.6C 31 23.2 30.6 24 30 24.8L 29.8 25.2L 29.8 20.8L 29.8 10C 29.8 10 29.8 10 29.8 9.8L 29.8 9C 29.4 6.8 27.4 5.2 25 5C 24.4 5 23.8 5.2 23.2 5.4L 23.2 5C 23.2 2.4 21 -7.62939e-07 18.4 -7.62939e-07C 17.2 -7.62939e-07 15.8 0.400001 15 1.4C 14.4 2 14 2.8 13.8 3.4C 13.2 3 12.4 2.8 11.6 2.8C 10.2 2.8 9 3.2 8.2 4.2C 7.2 5.2 6.8 6.4 6.8 7.6L 6.8 8.2C 6.2 8 5.6 7.8 5 7.8C 2.4 7.8 1.52588e-06 10 1.52588e-06 12.6L 1.52588e-06 36.6C 1.52588e-06 37.4 1.43051e-06 44 4 46.2L 4 50.6L 7 50.6L 7.2 44L 6 43.6C 3.6 43 3 38 3 36.4L 3 12.4C 3 11.4 3.8 10.6 4.8 10.6C 5.8 10.6 6.6 11.4 6.6 12.6L 6.6 28.2L 9.6 28.2L 9.6 23L 9.8 7.6C 9.8 7 10 6.6 10.4 6.2C 10.8 5.8 11.2 5.6 11.8 5.6C 12.8 5.6 13.6 6.4 13.6 7.6L 13.4 23L 16.4 23L 16.4 20L 16.6 4.6C 16.6 4 16.8 3.6 17.2 3.2C 17.6 2.8 18.2 2.6 18.6 2.6C 19.6 2.6 20.4 3.4 20.4 4.6L 20.4 9.6L 20.2 25L 23.2 25L 23.2 20L 23.2 9.6C 23.2 9.2 23.4 8.6 23.8 8.2C 24.2 7.8 24.8 7.6 25.2 7.6C 26.2 7.6 27 8.4 27 9.4L 27 20.2L 27 25L 27 29.6C 27 30.4 27.6 31 28.2 31.2C 29 31.4 29.8 31 30.2 30.4L 32.8 26C 33.2 25.4 33.6 24.8 34 24.2C 34.8 23.2 35.8 23.4 36.4 24C 36.6 24.2 37.6 25 36.8 26.4L 25.2 45L 25.2 53L 28.2 53L 28.2 45.8L 39.4 28L 39.6 27.8C 40.6 25.8 40.2 23.2 38 21.8Z"/>
</defs>
</svg>
