<svg width="300" height="271" viewBox="0 0 300 271" version="1.1" xmlns="http://www.w3.org/2000/svg" xmlns:xlink="http://www.w3.org/1999/xlink">
<title>Rectangle 3.14</title>
<desc>Created using Figma</desc>
<g id="Canvas" transform="translate(-183 -2286)">
<g id="Rectangle 3.14">
<mask id="mask0_outline_ins">
<use xlink:href="#path0_fill" fill="white" transform="translate(183 2286.71)"/>
</mask>
<g mask="url(#mask0_outline_ins)">
<use xlink:href="#path1_stroke_2x" transform="translate(183 2286.71)" fill="#303030"/>
</g>
</g>
</g>
<defs>
<path id="path0_fill" d="M 0 7C 0 3.13401 3.13401 0 7 0L 293 0C 296.866 0 300 3.13401 300 7L 300 263.045C 300 266.911 296.866 270.045 293 270.045L 7 270.045C 3.13401 270.045 0 266.911 0 263.045L 0 7Z"/>
<path id="path1_stroke_2x" d="M 7 1L 293 1L 293 -1L 7 -1L 7 1ZM 299 7L 299 263.045L 301 263.045L 301 7L 299 7ZM 293 269.045L 7 269.045L 7 271.045L 293 271.045L 293 269.045ZM 1 263.045L 1 7L -1 7L -1 263.045L 1 263.045ZM 7 -1C 2.58172 -1 -1 2.58172 -1 7L 1 7C 1 3.68629 3.68629 1 7 1L 7 -1ZM 293 1C 296.314 1 299 3.68629 299 7L 301 7C 301 2.58172 297.418 -1 293 -1L 293 1ZM 299 263.045C 299 266.358 296.314 269.045 293 269.045L 293 271.045C 297.418 271.045 301 267.463 301 263.045L 299 263.045ZM 7 269.045C 3.68629 269.045 1 266.358 1 263.045L -1 263.045C -1 267.463 2.58172 271.045 7 271.045L 7 269.045Z"/>
</defs>
</svg>
