<svg width="150" height="128" viewBox="0 0 150 128" version="1.1" xmlns="http://www.w3.org/2000/svg" xmlns:xlink="http://www.w3.org/1999/xlink">
<title>Group 2</title>
<desc>Created using Figma</desc>
<g id="Canvas" transform="translate(58 -2329)">
<g id="Group 2">
<g id="Group 6">
<g id="Vector">
<use xlink:href="#path0_fill" transform="translate(-58 2329.17)" fill="#282221"/>
</g>
<g id="Vector">
<use xlink:href="#path1_fill" transform="translate(9.88477 2334.48)" fill="#AF3B82"/>
</g>
<g id="Vector">
<use xlink:href="#path2_fill" transform="translate(-25.9045 2389.23)" fill="#AF543B"/>
</g>
<g id="Vector">
<use xlink:href="#path3_fill" transform="translate(-48.4472 2402.35)" fill="#AF543B"/>
</g>
<g id="Vector">
<use xlink:href="#path4_fill" transform="translate(-41.7674 2367)" fill="#AF543B"/>
</g>
<g id="Vector">
<use xlink:href="#path5_fill" transform="translate(-49.899 2377.43)" fill="#AF543B"/>
</g>
<g id="Vector">
<use xlink:href="#path6_fill" transform="translate(-2.17499 2366.54)" fill="#AF543B"/>
</g>
<g id="Vector">
<use xlink:href="#path7_fill" transform="translate(-12.0502 2376.62)" fill="#AF543B"/>
</g>
<g id="Vector">
<use xlink:href="#path8_fill" transform="translate(6.1228 2428.24)" fill="#3B4AAF"/>
</g>
<g id="Vector">
<use xlink:href="#path9_fill" transform="translate(-49.6332 2389.29)" fill="#3BAF9B"/>
</g>
<g id="Vector">
<use xlink:href="#path10_fill" transform="translate(-5.02228 2401.21)" fill="#AF543B"/>
</g>
<g id="Vector">
<use xlink:href="#path11_fill" transform="translate(18.1122 2389.09)" fill="#8F26AC"/>
</g>
<g id="Vector">
<use xlink:href="#path12_fill" transform="translate(-12.5294 2428.45)" fill="#AF543B"/>
</g>
<g id="Vector">
<use xlink:href="#path13_fill" transform="translate(-6.96497 2430.4)" fill="#3B4AAF"/>
</g>
<g id="Vector">
<use xlink:href="#path14_fill" transform="translate(22.7499 2375.66)" fill="#AF543B"/>
</g>
</g>
</g>
</g>
<defs>
<path id="path0_fill" d="M 149.44 120.273C 147.888 118.526 146.672 116.49 144.762 115.048C 143.862 114.369 142.713 113.633 142.38 112.678C 141.835 111.111 140.815 110.433 139.107 110.026C 140.945 108.398 140.468 107.289 138.792 106.148C 137.62 105.349 136.712 104.166 135.681 103.156C 132.04 99.5878 132.043 99.5911 128.253 102.988C 127.851 103.348 127.466 104.161 126.81 103.454C 124.055 100.481 120.74 97.8711 119.565 93.7694C 118.305 89.3694 116.43 85.1893 115.22 80.766C 114.383 77.711 112.971 75.1343 109.295 74.0493C 106.743 73.2959 104.041 72.4009 101.261 70.6943C 105.376 68.2026 107.701 64.0976 111.608 61.6875C 113.601 60.4575 113.655 59.4259 111.901 57.7692C 111.186 57.0942 110.428 56.4509 109.795 55.7042C 108.671 54.3758 107.586 54.3558 106.333 55.5258C 102.906 58.7242 99.088 61.5042 95.6963 65.7126C 95.8729 62.3109 96.1779 59.5359 96.1263 56.7692C 96.0129 50.7092 95.3929 44.6441 95.5679 38.5974C 95.9013 27.074 96.0696 15.5556 95.9696 4.0289C 95.9529 2.08556 95.1029 1.43389 93.5029 1.39722C 86.6896 1.24056 79.8629 1.02222 73.0662 1.58722C 62.3978 2.4739 51.7427 2.45723 41.1127 1.32389C 31.0226 0.247217 20.9442 -0.52612 10.7992 0.440552C 8.01581 0.70722 5.0908 1.41389 2.46412 0.842219C -0.160896 0.272216 -0.0925627 1.68889 0.0974383 2.99557C 0.745775 7.45892 -0.404231 11.8889 0.162439 16.3656C 0.710775 20.7057 0.800775 25.114 0.922443 29.4974C 1.08578 35.4841 -0.11423 41.4074 0.0224378 47.4058C 0.220772 56.1008 0.300773 64.7976 0.439107 73.4943C 0.48244 76.2143 -0.11923 78.8743 0.0807712 81.6426C 0.40244 86.0943 0.895776 90.626 0.565774 95.0311C -0.170896 104.893 0.475774 114.721 0.42744 124.561C 0.420773 125.94 0.932443 126.731 2.39912 126.725C 10.4392 126.686 18.4775 126.721 26.5159 126.595C 32.8659 126.496 39.2343 125.775 45.556 126.095C 55.6411 126.603 65.7245 126.516 75.8045 126.796C 80.2579 126.92 84.7512 126.115 89.1696 127.173C 91.5746 127.748 93.9513 127.201 96.3329 127.08C 97.7796 127.006 99.4846 126.628 99.6963 124.966C 100.033 122.323 100.23 119.586 99.928 116.955C 99.498 113.196 100.203 109.509 99.833 106.049C 104.075 105.939 107.101 107.959 109.751 110.718C 109.803 110.771 109.88 110.799 109.945 110.839C 111.335 111.678 113.006 112.329 112.111 114.538C 111.928 114.991 112.35 115.374 112.621 115.743C 114.148 117.806 115.628 119.888 116.423 122.385C 116.593 122.92 117.145 123.738 117.515 123.735C 119.565 123.716 120.296 125.225 121.25 126.568C 121.841 127.403 122.756 128.196 123.7 127.366C 124.668 126.515 123.686 125.808 123.065 125.135C 121.928 123.905 121.416 122.156 122.896 121.278C 125.536 119.711 127.561 117.188 130.596 116.293C 132.175 115.826 133.386 114.819 134.615 113.833C 135.555 113.076 136.312 111.699 137.318 111.513C 138.767 111.246 138.788 113.286 139.743 114.018C 142.723 116.298 145.053 119.263 147.873 121.711C 148.44 122.203 149.045 122.615 149.663 122.063C 150.318 121.485 149.893 120.783 149.44 120.273ZM 105.988 58.6042C 107.606 57.2992 108.478 56.7609 109.755 58.6292C 109.993 58.9775 110.371 59.2309 110.58 59.4309C 106.57 63.4409 102.141 66.8559 98.5196 71.1359C 96.618 73.3826 94.4746 75.4026 92.1063 77.1893C 90.5413 78.371 88.9379 79.6193 87.7446 81.146C 86.0579 83.3043 84.3379 83.8793 81.9612 82.1227C 84.2395 79.1193 87.1562 76.571 90.0346 74.0793C 95.6479 69.2193 100.19 63.2842 105.988 58.6042ZM 89.8913 81.8077C 90.8663 81.1376 91.5779 79.661 92.4479 79.9343C 94.8663 80.6943 97.7413 80.0476 99.7296 81.9627C 100.838 83.0293 99.3463 84.0543 99.2913 85.1777C 96.4513 83.1543 92.8529 83.761 89.8913 81.8077ZM 98.7446 87.7227C 98.1613 89.326 97.6663 90.6794 95.298 89.8377C 93.0113 89.0244 90.7579 88.2477 88.8196 86.7777C 88.3462 86.4193 87.4446 85.9993 87.7596 85.311C 88.0846 84.601 88.8346 84.0327 90.3696 84.4027C 92.4046 85.366 95.2029 85.5727 97.923 86.096C 99.0446 86.311 99.0446 86.9027 98.7446 87.7227ZM 81.1879 75.1526C 82.9462 73.8776 83.7879 71.8376 85.1212 70.2076C 86.6996 68.2776 88.2896 67.9392 90.4113 68.7926C 90.8063 68.9509 91.3279 68.6742 91.6113 69.0809C 89.8246 71.0043 88.0746 72.9426 86.2629 74.8193C 84.7396 76.3993 83.0095 77.7976 81.6095 79.4743C 79.8712 81.5543 77.9612 82.7743 75.1328 81.8677C 76.5845 79.016 78.7245 76.9376 81.1879 75.1526ZM 75.6895 76.7976C 79.0595 70.6809 80.0929 69.6543 83.2329 69.3143C 81.3345 72.4093 78.9745 74.8159 75.6895 76.7976ZM 95.7879 125.343C 94.0696 125.253 92.2713 124.83 90.7346 124.731C 88.5962 124.595 86.2662 124.21 84.0896 124.55C 80.0645 125.178 76.0895 124.371 72.0928 124.488C 61.6311 124.79 51.171 123.708 40.7343 124.093C 28.6193 124.54 16.4892 123.968 4.39246 124.89C 2.93245 125.001 2.40912 124.615 2.43578 123.058C 2.49078 119.801 2.51412 116.52 2.16245 113.289C 1.96411 111.461 3.54412 110.128 2.97412 108.296C 1.64245 104.011 2.76745 99.6494 2.65578 95.3261C 2.51245 89.8027 1.91578 84.2643 2.27412 78.756C 2.69412 72.3059 2.10578 65.8892 2.24578 59.4559C 2.35912 54.2342 2.31078 49.0075 2.24578 43.7824C 2.20078 40.2058 2.62078 36.6857 3.11745 33.1557C 3.72412 28.829 2.41245 24.579 2.44245 20.2557C 2.46912 16.2723 1.79745 12.2956 2.25745 8.29559C 2.35245 7.47226 2.31245 6.62225 2.25078 5.79225C 2.02578 2.7589 2.01245 2.77556 5.24413 2.7489C 10.1608 2.70723 15.0525 2.13723 19.9525 1.93889C 23.9292 1.77722 27.9376 2.47223 31.9359 2.70223C 38.5793 3.0839 45.1943 3.73057 51.8027 4.48391C 56.5777 5.02724 61.3594 5.35558 66.1028 4.1639C 66.3211 4.1089 66.5561 4.10557 66.7828 4.11557C 74.5878 4.46224 82.3645 3.56723 90.1613 3.6039C 93.8396 3.62224 93.8613 3.6489 93.8663 7.19059C 93.8779 15.239 94.2746 23.314 93.7479 31.3274C 93.2196 39.3891 93.8229 47.3691 94.0829 55.3858C 94.1613 57.8042 93.9096 60.2309 93.8546 62.6559C 93.8229 64.0559 92.3713 65.0476 92.8713 66.6909C 93.0129 67.1559 91.7629 67.4626 91.0179 67.1626C 86.9312 65.5176 83.3079 67.6942 79.7345 68.8859C 76.1262 70.0893 74.7995 73.8259 73.3995 77.0693C 72.8095 78.4376 71.5262 79.6843 72.0445 81.476C 72.2045 82.0327 71.4212 81.9793 71.0895 82.2327C 70.1611 82.9393 69.7361 83.9293 70.7611 84.6827C 71.8512 85.4827 71.8945 86.2043 71.3095 87.231C 70.8495 88.041 71.3545 88.8227 71.4662 89.5777C 69.1595 90.8894 67.0378 88.481 64.7094 89.3277C 64.2378 89.4994 63.9561 88.3844 63.7161 87.741C 63.4161 86.9343 63.2811 85.856 62.1478 85.7243C 61.0461 85.5977 60.9844 86.7527 60.3694 87.321C 59.4228 85.9844 58.5361 84.5843 57.2694 83.4943C 56.2244 82.5943 54.9977 82.0393 53.7427 82.721C 52.6377 83.321 52.7244 84.596 52.7094 85.7493C 52.6694 88.766 54.1227 91.086 56.0311 93.2244C 57.0427 94.3594 58.6177 95.0911 58.6811 96.9244C 58.6911 97.2077 58.8844 97.5711 59.2478 97.4744C 59.4894 97.4094 59.7911 97.1577 59.8628 96.9261C 60.2994 95.5261 60.0861 94.4144 58.8694 93.3144C 56.3077 91.001 54.2011 88.3544 54.7594 84.3543C 57.5861 85.6777 58.5477 88.4294 60.0578 90.681C 60.8444 91.8527 61.3461 93.5194 62.7328 91.231C 63.0444 90.7177 63.2628 90.921 63.5711 91.1544C 64.3061 91.7127 65.0611 91.7794 65.8995 91.331C 66.4078 91.0577 66.6495 91.5427 67.0345 91.7494C 68.7395 92.6694 70.9595 92.7327 71.7962 94.9577C 73.8012 94.3644 76.1678 94.9361 77.8095 93.1994C 78.8729 92.076 79.5629 92.4777 80.5562 93.396C 84.5446 97.0794 88.5779 100.724 93.4429 103.269C 94.1096 103.619 94.8113 104.311 95.4413 104.253C 97.8763 104.026 97.5646 105.554 97.5196 107.073C 97.363 112.428 97.3363 117.783 97.9763 123.113C 98.1896 124.86 97.3763 125.425 95.7879 125.343ZM 114.888 111.516C 112.53 109.084 109.513 107.483 106.888 105.386C 104.245 103.274 100.528 102.753 97.0596 102.223C 93.4763 101.676 90.9246 99.1494 88.1046 97.2161C 86.1329 95.8644 84.3879 94.1527 82.6812 92.4627C 82.1812 91.9677 80.7079 91.701 81.6645 90.2844C 81.9562 89.8544 81.0512 89.8277 80.6929 89.6577C 79.6129 89.1444 78.5129 88.6727 77.4029 88.2277C 75.6512 87.5227 74.4312 86.351 73.9228 84.281C 76.2545 84.281 78.4245 84.2827 80.5945 84.281C 83.0779 84.2777 84.5412 86.2043 86.2546 87.4877C 88.8262 89.416 91.3896 91.241 94.6329 91.681C 96.1346 91.886 97.4763 93.7077 98.9846 92.556C 100.171 91.6494 100.198 89.8577 100.725 88.4627C 101.413 86.6394 101.873 84.7277 102.373 82.8377C 102.691 81.636 102.075 80.791 101.086 80.216C 100.11 79.6476 99.1363 79.006 98.0746 78.6676C 97.053 78.341 95.9196 78.3593 94.5246 78.1893C 96.7113 75.8493 99.1646 74.1643 100.776 71.6859C 102.968 74.1376 106.06 74.8843 108.835 76.1043C 110.62 76.8876 111.881 77.786 112.52 79.6693C 114.675 86.026 116.663 92.441 119.22 98.6594C 119.661 99.7327 120.125 100.298 121.3 100.874C 122.89 101.654 124.068 103.364 125.273 104.801C 125.883 105.528 124.983 105.991 124.521 106.441C 122.18 108.726 119.221 110.141 116.598 112.029C 115.796 112.606 115.353 111.996 114.888 111.516ZM 136.573 110.129C 134.225 111.598 132.128 113.454 129.49 114.506C 127.465 115.313 125.608 116.485 123.973 118.023C 122.551 119.361 120.92 120.51 118.791 119.473C 118.28 120.143 120.121 120.665 118.923 121.175C 117.908 121.606 118.135 120.356 117.748 119.913C 117.505 119.633 117.368 119.261 117.166 118.943C 115.265 115.968 115.368 114.658 118.51 113.044C 121.881 111.313 124.651 108.779 127.795 106.758C 128.96 106.008 129.596 104.396 130.751 103.373C 131.52 102.693 132 102.493 132.783 103.293C 134.053 104.588 135.34 105.884 136.752 107.016C 138.273 108.236 137.747 109.396 136.573 110.129Z"/>
<path id="path1_fill" d="M 0.454702 12.7298C 0.454702 15.4548 0.451368 17.4998 0.456368 19.5448C 0.463035 22.0748 1.2147 22.7065 3.74638 22.4632C 6.37306 22.2098 8.99475 22.0415 11.6481 22.2182C 13.5248 22.3448 15.4031 22.6265 17.3065 22.3898C 19.0998 22.1682 20.0548 21.2782 20.0031 19.4548C 19.8498 14.1581 20.7581 8.89977 20.5481 3.59641C 20.4331 0.709729 20.0915 0.21306 17.1131 0.181393C 12.3014 0.129727 7.5114 -0.348609 2.66805 0.496395C 0.376367 0.896397 -0.251968 1.74807 0.0847 3.67141C 0.653036 6.91143 0.376368 10.1631 0.454702 12.7298ZM 3.14138 20.1648C 3.14138 19.3482 3.14471 18.5582 3.14805 17.7532C 3.20805 17.5015 3.25638 17.2465 3.33972 17.0032C 3.63805 16.1265 4.01972 15.2231 5.15306 15.0865C 5.17306 15.0848 5.19139 15.0731 5.20972 15.0681C 5.72972 14.9348 6.24806 14.7981 6.76807 14.6715C 6.9314 14.6315 7.03307 14.6881 7.10974 14.8665C 7.18474 15.0415 7.32474 15.2015 7.46807 15.3315C 7.74141 15.5781 8.04807 15.7898 8.32307 16.0348C 8.47474 16.1698 8.59474 16.1748 8.73974 16.0431C 8.85308 15.9398 8.97474 15.8465 9.07141 15.7681C 9.21975 16.0281 9.35308 16.2565 9.47975 16.4881C 9.50641 16.5365 9.52475 16.6031 9.51308 16.6531C 9.27808 17.6932 9.04141 18.7332 8.80141 19.7732C 8.62975 19.7715 8.45807 19.7682 8.28641 19.7665C 6.6414 19.7615 4.99139 19.6998 3.14138 20.1648ZM 5.8964 7.2731C 5.6664 7.31143 5.57306 7.22643 5.55139 7.04643C 5.42973 6.03976 5.39806 5.03309 5.62806 4.03975C 5.7014 3.72641 5.81639 3.39308 6.23806 3.30974C 6.3764 3.28308 6.52973 3.11474 6.5964 2.97307C 6.72973 2.68307 6.9614 2.52807 7.22807 2.4114C 7.49641 2.29307 7.76307 2.18307 8.04141 2.1064C 8.76808 2.06974 9.49475 2.04307 10.2231 2.03807C 10.2848 2.0414 10.3464 2.03474 10.4064 2.0414C 10.7664 2.08474 11.1314 2.2514 11.4514 2.43807C 11.9198 2.71141 12.3531 3.04641 12.7931 3.36641C 12.8848 3.43308 12.9714 3.53641 13.0114 3.64141C 13.4031 4.70142 13.5198 5.78976 13.3581 6.91143C 13.3198 7.1781 13.1881 7.2981 12.9264 7.31977C 12.9181 7.24477 12.9098 7.1681 12.8998 7.0931C 12.8814 7.07976 12.8664 7.06143 12.8498 7.0581C 12.6581 7.03143 12.5381 6.9481 12.4431 6.75476C 12.0481 5.94642 11.2948 5.63975 10.4864 5.43809C 10.2481 5.37809 9.99142 5.37642 9.74308 5.36976C 9.11641 5.35309 8.48975 5.35475 7.86307 5.33809C 7.43141 5.32642 7.03973 5.19975 6.7364 4.86975C 6.62973 4.75308 6.5164 4.64308 6.38973 4.51475C 5.98139 5.40642 5.83806 6.32476 5.8964 7.2731ZM 6.09473 8.73477C 5.55806 8.52977 5.49139 8.0581 5.29139 7.6581C 5.57472 7.53977 5.58473 8.27311 5.9564 7.75977C 6.0064 8.1131 6.04806 8.4031 6.09473 8.73477ZM 13.3681 7.78477C 13.2798 8.23977 13.1281 8.66144 12.6448 8.91477C 12.6981 8.43644 12.6664 7.9681 13.1081 7.67477C 13.1598 7.63977 13.2414 7.59977 13.2881 7.6181C 13.3314 7.6381 13.3781 7.73477 13.3681 7.78477ZM 6.9414 5.43642C 7.30307 5.61809 7.68807 5.67309 8.09807 5.68476C 8.96975 5.70976 9.84641 5.74476 10.7081 5.86809C 11.0731 5.91976 11.4048 6.20476 11.7531 6.38476C 11.7448 6.40976 12.4664 7.9381 12.3581 8.50477C 12.2581 9.03311 12.2298 9.57811 12.0981 10.0981C 12.0231 10.3931 11.8148 10.6565 11.6448 10.9215C 11.5448 11.0781 11.3898 11.2015 11.2898 11.3581C 11.0481 11.7381 10.7431 12.0348 10.3331 12.2315C 9.75142 12.5115 9.23475 12.3265 8.75808 12.0015C 8.32308 11.7048 7.91474 11.3681 7.50974 11.0315C 6.91307 10.5348 6.8014 9.81811 6.6664 9.11311C 6.56306 8.56477 6.4064 8.01977 6.37306 7.4681C 6.32473 6.68976 6.3664 5.90476 6.36973 5.03975C 6.6214 5.21642 6.76807 5.35142 6.9414 5.43642ZM 11.4998 13.4415C 11.5414 13.4365 11.5831 13.4315 11.6248 13.4265C 11.8631 13.6298 12.1148 13.8198 12.3298 14.0448C 12.3898 14.1081 12.3914 14.3065 12.3364 14.3881C 12.1781 14.6265 11.9914 14.8498 11.7881 15.0515C 11.5998 15.2381 11.3764 15.3898 11.1298 15.5881C 10.9331 15.4231 10.7214 15.2465 10.4881 15.0498C 11.2381 14.7331 11.9531 14.4715 11.4998 13.4415ZM 8.13974 12.0415C 8.68641 12.3515 9.11808 12.7298 9.70975 12.7298C 10.2864 12.7281 10.7498 12.4515 11.1948 12.1115C 11.1948 12.5615 11.1981 12.9865 11.1931 13.4098C 11.1914 13.5798 11.1731 13.7481 11.1631 13.9181C 11.1548 14.0448 11.1931 14.2415 11.1298 14.2831C 10.9064 14.4315 10.6464 14.6231 10.4014 14.6198C 9.88808 14.6165 9.37141 14.5215 8.86474 14.4198C 8.58808 14.3631 8.33141 14.2148 8.13974 14.1381C 8.13974 13.4231 8.13974 12.7648 8.13974 12.0415ZM 10.9198 19.7998C 10.8198 19.7982 10.7198 19.7982 10.6198 19.7965C 10.6931 19.6465 10.7648 19.5032 10.8648 19.2998C 10.9181 19.5098 10.9548 19.6465 10.9898 19.7848C 10.9664 19.7898 10.9414 19.7948 10.9198 19.7998ZM 9.29308 19.7798C 9.44308 19.6348 9.62641 19.5165 9.81641 19.3765C 9.74808 19.5148 9.68308 19.6482 9.61641 19.7832C 9.50808 19.7832 9.39975 19.7815 9.29308 19.7798ZM 9.71642 18.1715C 9.75475 18.1915 9.79475 18.2115 9.83308 18.2315C 9.72308 18.4482 9.61308 18.6665 9.50141 18.8832C 9.46141 18.8632 9.42141 18.8448 9.38308 18.8265C 9.49308 18.6065 9.60475 18.3882 9.71642 18.1715ZM 9.51308 15.8881C 9.43475 15.8048 9.38142 15.7465 9.30975 15.6681C 9.44142 15.5731 9.54975 15.4965 9.65808 15.4181C 9.67308 15.4281 9.68808 15.4381 9.70141 15.4481C 9.64475 15.5815 9.58808 15.7148 9.51308 15.8881ZM 10.1848 19.4698C 10.3298 19.0898 10.4631 18.7382 10.6031 18.3715C 10.8114 18.8715 10.7681 18.9865 10.1848 19.4698ZM 9.76808 14.9198C 9.31808 15.2065 8.94474 15.4448 8.53141 15.7098C 8.22141 15.4698 7.89141 15.2448 7.59641 14.9798C 7.29641 14.7098 7.29974 14.2465 7.55307 14.0681C 8.09974 14.7515 8.90641 14.7898 9.76808 14.9198ZM 15.5581 19.7982C 14.1614 19.8348 12.7631 19.8232 11.3648 19.8048C 11.0264 18.6548 10.6998 17.5398 10.4048 16.5381C 10.5864 16.3048 10.7448 16.1031 10.9114 15.8915C 11.2231 16.0798 11.2414 16.0748 11.5214 15.7531C 11.6064 15.6565 11.7114 15.5765 11.7998 15.4831C 12.0714 15.1948 12.3631 14.9215 12.6014 14.6081C 12.7414 14.4248 12.8064 14.4465 12.9748 14.5581C 13.1931 14.7031 13.4398 14.8165 13.6881 14.8965C 13.9131 14.9698 14.1598 14.9665 14.3931 15.0215C 14.7598 15.1098 15.1281 15.1998 15.4848 15.3231C 15.6481 15.3781 15.8364 15.4765 15.9248 15.6131C 16.3298 16.2415 16.6631 16.9181 17.1015 17.5198C 17.3848 17.9098 17.5448 18.3365 17.6698 18.7748C 17.4915 19.8048 16.3665 19.7765 15.5581 19.7982ZM 17.2881 2.38307C 18.2948 2.48307 18.4531 2.85974 18.5031 3.77308C 18.7615 8.53477 17.7565 13.2265 17.7648 17.9748C 17.6848 17.8048 17.6281 17.6282 17.5048 17.4732C 17.3498 17.2798 17.2415 17.0498 17.1115 16.8381C 16.7998 16.3281 16.5031 15.8065 16.1681 15.3115C 16.0664 15.1615 15.8664 15.0615 15.6914 14.9798C 15.5331 14.9065 15.3481 14.8848 15.1731 14.8481C 14.6864 14.7465 14.1948 14.6665 13.7131 14.5465C 13.3981 14.4665 13.0981 14.3315 12.7931 14.2165C 12.7648 14.2065 12.7414 14.1548 12.7348 14.1198C 12.6498 13.6831 12.2781 13.5031 11.9598 13.2965C 11.6864 13.1181 11.5698 12.8881 11.5531 12.5798C 11.5148 11.8898 11.9648 11.3815 12.2048 10.7931C 12.3348 10.4748 12.5181 10.1414 12.5148 9.81811C 12.5114 9.51311 12.5614 9.34311 12.8198 9.19977C 13.5198 8.81311 13.7898 8.19477 13.6331 7.3981C 13.6248 7.35143 13.6281 7.29977 13.6398 7.2531C 13.8864 6.17476 13.8214 5.10642 13.5114 4.05475C 13.4181 3.73808 13.2931 3.38141 13.0648 3.16808C 12.6498 2.77974 12.1464 2.48474 11.6814 2.14974C 11.6148 2.1014 11.5381 2.0914 11.4681 2.04974C 13.4064 2.07974 15.3448 2.18974 17.2881 2.38307ZM 3.94972 2.47307C 4.99139 2.32474 6.03473 2.22474 7.0764 2.15141C 6.9514 2.22974 6.81807 2.28807 6.69973 2.3764C 6.43306 2.57641 6.2564 2.91641 5.97139 3.06474C 5.57806 3.26974 5.37973 3.57974 5.29473 3.96141C 5.07139 4.95475 5.08472 5.96476 5.19306 6.97143C 5.21139 7.13643 5.23472 7.2631 5.09306 7.40143C 5.01305 7.48143 4.96306 7.67143 4.99972 7.77977C 5.16139 8.26144 5.32306 8.75144 5.82973 9.00978C 5.96973 9.07978 6.13806 9.16977 6.20306 9.29811C 6.3664 9.62144 6.49807 9.96311 6.60473 10.3098C 6.76307 10.8248 7.05307 11.2198 7.5114 11.5081C 7.63974 11.5881 7.7814 11.7431 7.80307 11.8815C 7.85474 12.2215 7.82641 12.5731 7.85474 12.9165C 7.87807 13.1965 7.82474 13.4148 7.57474 13.5831C 7.26474 13.7915 6.90473 13.9831 7.03473 14.4631C 6.8414 14.4415 6.70473 14.4048 6.56973 14.4131C 5.76473 14.4615 5.02306 14.7665 4.26639 15.0081C 4.17639 15.0381 4.07972 15.1015 4.02472 15.1765C 3.74972 15.5548 3.42138 15.9115 3.23638 16.3298C 3.19805 16.4181 3.18805 16.5131 3.15138 16.6015C 3.15972 14.2465 3.16471 11.9148 3.12471 9.60145C 3.09138 7.7231 2.90638 5.84642 2.74138 3.97308C 2.65804 3.03474 3.00305 2.60807 3.94972 2.47307Z"/>
<path id="path2_fill" d="M 38.3306 2.98107C 39.3456 2.65107 40.874 3.22607 40.759 1.54939C 40.6606 0.132718 39.6256 0.0510525 38.4256 0.562722C 37.979 0.752723 37.3773 0.544389 36.8506 0.58439C 35.1806 0.707723 33.4856 -0.462287 31.9389 0.209384C 27.8689 1.97606 23.5905 1.00939 19.4355 1.50772C 17.4905 1.74106 15.6022 1.80106 13.6222 1.67606C 11.4672 1.54106 9.48381 0.271053 7.20713 0.946057C 5.64212 1.41106 3.90211 2.46773 2.3721 0.642723C 2.1821 0.416055 1.48043 0.517722 1.05376 0.61939C 0.557093 0.73939 -0.0645768 0.987722 0.00542361 1.60773C 0.0737573 2.21606 0.655427 2.02439 1.08876 1.98106C 1.54876 1.93439 1.8771 1.98773 2.16044 2.5194C 3.02544 4.15107 4.39878 4.04607 5.85212 3.3944C 6.98546 2.8844 8.25714 2.51439 9.37881 2.93106C 15.5388 5.21441 21.7955 3.27607 27.9556 3.16607C 31.4056 3.1044 34.8873 2.14773 38.3306 2.98107Z"/>
<path id="path3_fill" d="M 36.6832 2.27513C 37.7299 2.39347 39.2532 3.20347 39.5299 1.65347C 39.7682 0.316793 38.1882 0.355127 37.1666 0.19346C 37.0916 0.181793 37.0149 0.155124 36.9415 0.161791C 30.5748 0.775128 24.1065 -0.974885 17.7881 1.01346C 17.0298 1.25179 16.0198 1.32513 15.3264 1.02013C 13.3781 0.16179 11.2997 0.493457 9.35473 0.0851217C 7.19306 -0.366547 5.41805 1.15013 3.33304 0.656795C 2.4247 0.780129 1.39469 0.373461 0.518023 1.05013C -0.0353132 1.4768 -0.278648 2.36347 0.471356 2.32847C 2.35137 2.24013 4.16638 3.45681 6.01639 2.63347C 8.34973 1.5968 10.7431 1.9168 12.9864 2.56347C 15.0898 3.16847 17.0731 3.52514 19.1781 2.86847C 24.8048 1.1168 30.6015 3.21014 36.2615 2.12847C 36.3882 2.10514 36.5382 2.25847 36.6832 2.27513Z"/>
<path id="path4_fill" d="M 1.26161 2.08035C 2.01828 1.51535 2.09995 2.38702 2.38161 2.70535C 2.79495 3.17702 3.52662 3.8937 3.81495 3.52036C 5.04163 1.93702 7.28164 3.92369 8.34498 2.09035C 8.51665 1.79368 8.86832 2.08202 9.14665 2.11702C 13.165 2.61036 17.2017 3.87369 21.185 1.90701C 21.5917 1.70535 22.0784 1.72868 22.4667 2.07369C 23.6751 3.14869 25.1001 2.98703 26.8617 2.75369C 28.5251 3.24369 30.3618 1.89535 32.3601 2.28035C 32.9434 2.39202 33.3701 2.10035 33.4501 1.42701C 33.5268 0.782011 33.1984 0.430345 32.6584 0.220343C 31.7668 -0.126325 30.8834 -0.0129923 29.9934 0.268676C 28.7018 0.677011 27.3801 1.21201 26.0217 0.893679C 23.2767 0.250342 20.5667 -0.746331 17.83 0.908677C 17.6684 1.00701 17.3584 0.967011 17.1617 0.885344C 15.7684 0.312008 14.3567 0.480345 12.915 0.660346C 10.745 0.932014 8.69665 -0.0613276 6.3833 0.237007C 5.00329 0.415342 3.10828 1.13201 1.50828 0.0586757C 1.14661 -0.182992 0.519937 0.368676 0.276603 0.860345C 0.0449347 1.32868 -0.181733 1.88869 0.221602 2.36202C 0.706605 2.93869 0.926605 2.33202 1.26161 2.08035Z"/>
<path id="path5_fill" d="M 1.05319 3.69875C 2.3882 3.61042 3.76654 3.90542 4.88488 2.80541C 5.77155 1.93208 6.88489 2.03041 7.82989 2.58708C 9.26323 3.43042 10.6466 3.39708 12.1732 2.93875C 13.2449 2.61708 14.5249 2.13708 15.4816 2.44708C 19 3.58375 22.5516 1.37708 25.5217 2.83708C 28.0433 2.62375 30.0783 2.47708 32.105 2.26541C 32.7967 2.19374 33.5334 1.92208 33.47 1.05541C 33.405 0.193735 32.6984 0.0287334 31.9517 0.0737336C 31.4234 0.107067 30.885 0.107065 30.3667 0.205399C 25.875 1.04707 21.3533 0.080397 16.8383 0.427065C 15.2949 0.545399 13.6883 0.343737 12.1699 0.777072C 10.8066 1.16707 9.56657 1.28874 8.27489 0.523737C 7.08489 -0.1796 5.74321 -0.191266 4.61654 0.590405C 3.48487 1.37708 2.44986 2.14375 0.953188 1.91208C 0.363185 1.82041 -0.0401504 2.22208 0.00318318 2.89208C 0.0481834 3.55208 0.366519 3.74375 1.05319 3.69875Z"/>
<path id="path6_fill" d="M 1.34442 2.71477C 4.21943 3.43477 7.25445 3.43311 10.0995 3.40644C 14.8895 3.36144 19.7062 2.69311 24.5279 2.29977C 26.6446 2.29977 28.7629 2.3431 30.8762 2.27977C 31.8229 2.25144 33.1162 2.19143 32.9646 0.861425C 32.8096 -0.491915 31.6029 0.148092 30.7579 0.171425C 23.6679 0.368093 16.5995 1.09309 9.52446 1.28809C 7.02611 1.35643 4.3561 1.71643 1.80776 1.00143C 0.987753 0.771424 0.142743 1.16809 0.0127425 1.9581C -0.120592 2.7831 0.824413 2.58477 1.34442 2.71477Z"/>
<path id="path7_fill" d="M 0.7062 1.67598C 0.417865 1.56598 -0.040472 1.83431 0.00286159 2.34432C 0.0378618 2.74598 0.421197 2.66932 0.651198 2.81599C 3.41788 4.55766 6.5079 3.50599 9.37291 3.55099C 14.9513 3.63765 20.5413 2.95099 26.1263 2.58598C 27.388 2.36932 28.6997 2.95765 29.9497 2.37765C 30.6814 2.03765 30.998 1.50764 30.8147 0.750971C 30.6747 0.177635 30.2964 -0.0506992 29.6314 0.00930109C 24.3913 0.47097 19.1463 0.889306 13.9013 1.31764C 12.0196 1.47098 9.86791 2.26098 8.31457 1.61764C 5.61122 0.494304 3.22455 2.63265 0.7062 1.67598Z"/>
<path id="path8_fill" d="M 19.3501 0.00683038C 19.1584 0.0834974 18.8684 0.323505 18.8851 0.458506C 19.1751 2.84019 17.2184 2.01184 16.2401 2.13184C 14.2051 2.38185 11.9967 1.91851 10.1184 2.06018C 6.8467 2.30685 3.55002 2.54351 -1.62761e-06 2.64684C 0.328333 3.53852 0.798338 3.81352 1.30334 3.84685C 6.54504 4.19019 11.7917 4.39019 17.0451 4.17019C 17.8434 4.13685 18.4618 3.79518 18.9684 3.13351C 19.2034 2.82851 18.7518 2.01018 19.5018 2.22518C 19.9418 2.35018 20.4201 2.84352 20.5951 3.28352C 20.8868 4.01852 20.7118 4.72185 19.9601 5.24519C 19.4634 5.59186 19.4518 6.17186 19.8351 6.64853C 20.1351 7.0202 20.5184 7.11187 21.0434 6.95187C 22.4051 6.53687 23.6335 4.02186 23.1868 2.42518C 23.0751 2.01851 19.7101 -0.136504 19.3501 0.00683038Z"/>
<path id="path9_fill" d="M 7.21745 2.75802C 8.12413 2.19635 9.14246 2.06968 10.0608 2.39969C 11.4025 2.87969 12.7442 2.76469 14.3158 2.80635C 15.4475 2.71302 16.8225 2.94969 18.1425 2.42135C 18.8375 2.14302 19.4392 1.70135 19.3125 0.971347C 19.1709 0.158009 18.3808 0.438006 17.8058 0.48134C 14.9625 0.701341 12.1141 1.27468 9.31913 0.0863386C 8.7808 -0.141996 8.13746 0.123005 7.57746 0.41134C 5.42578 1.51968 3.1941 1.86801 0.842421 1.09801C 0.310752 0.924674 -0.134251 1.18801 0.0374171 1.72802C 0.309085 2.57969 0.824087 3.85969 1.71409 3.56969C 3.54077 2.97469 5.52411 3.80636 7.21745 2.75802Z"/>
<path id="path10_fill" d="M 16.5718 0.613104C 15.7451 0.649771 14.8667 0.676433 14.1151 0.969768C 12.3434 1.6581 10.5934 1.34977 9.06171 0.618101C 5.89003 -0.89524 3.27168 0.73477 -2.08538e-06 1.63477C 1.23667 2.74311 2.06501 2.71645 3.10668 2.43311C 4.24336 2.12478 5.51503 1.3081 6.60337 1.86144C 9.97672 3.57311 13.4417 3.33478 16.9468 2.69145C 18.1118 2.47811 20.3234 3.62978 20.1984 1.61644C 20.0884 -0.210238 17.9251 0.553104 16.5718 0.613104Z"/>
<path id="path11_fill" d="M 9.79908 0.0029449C 6.87573 0.151279 3.94904 0.27128 1.02236 0.36128C 0.475688 0.377947 0.100691 0.621279 0.0190235 1.06128C -0.0993104 1.70295 0.349024 2.04629 0.959027 2.05795C 2.3957 2.08462 3.83404 2.06629 5.27239 2.06629C 5.27239 2.07129 5.27239 2.07629 5.27239 2.08129C 6.78573 2.08129 8.29907 2.08462 9.81241 2.07962C 10.6107 2.07795 11.1991 1.64295 11.1457 0.887947C 11.1007 0.272943 10.5207 -0.033722 9.79908 0.0029449Z"/>
<path id="path12_fill" d="M 3.21206 5.34503C 2.31372 5.87337 2.01539 5.17169 1.93205 4.44502C 1.75705 2.90835 1.93039 1.44668 3.7054 9.15532e-07C 1.46038 0.0416678 0.348709 0.775008 0.167042 2.26335C -0.0662931 4.17336 -0.40963 6.28671 1.91705 7.37505C 2.38039 7.59171 2.89206 7.79004 3.39206 7.82171C 4.05206 7.86338 4.4654 7.47837 4.6654 6.79503C 4.84874 6.17003 4.8954 5.5667 4.48706 5.08337C 3.97039 4.4717 3.65873 5.08336 3.21206 5.34503Z"/>
<path id="path13_fill" d="M 6.25103 0.218786C 4.25102 -0.641219 2.65434 1.37046 0.789334 0.518788C 0.282665 0.28712 -0.315675 0.95545 0.194327 1.48045C 0.790997 2.09212 1.92101 3.09713 2.44434 2.6088C 3.85102 1.29379 5.20435 2.74546 7.05603 2.28546C 8.05604 2.25546 8.77604 1.88545 8.51604 1.20878C 8.10104 0.125442 6.95437 0.522121 6.25103 0.218786Z"/>
<path id="path14_fill" d="M 5.75463 0.107933C 3.93462 -0.318736 2.22795 0.657938 0.426269 0.647938C 0.192934 0.646272 -0.118735 0.937942 0.0462659 1.30294C 0.227934 1.70461 0.636267 1.81461 0.999602 1.75794C 2.51461 1.52294 3.98629 1.69461 5.45129 2.08128C 6.2113 2.30628 6.90463 2.09461 7.0663 1.33461C 7.2613 0.426268 6.3663 0.252934 5.75463 0.107933Z"/>
</defs>
</svg>
