<svg width="164" height="164" viewBox="0 0 164 164" version="1.1" xmlns="http://www.w3.org/2000/svg" xmlns:xlink="http://www.w3.org/1999/xlink">
<title>Vector</title>
<desc>Created using Figma</desc>
<g id="Canvas" transform="matrix(2 0 0 2 -2696 -15128)">
<g id="Vector">
<use xlink:href="#path0_fill" transform="translate(1349 7565.12)" fill="#432492"/>
<use xlink:href="#path1_stroke" transform="translate(1349 7565.12)" fill="#FFFFFF"/>
</g>
</g>
<defs>
<path id="path0_fill" d="M 52.3972 8.9902C 46.601 3.19311 38.8916 0 30.6933 0C 22.495 0 14.7873 3.19146 8.9902 8.9902C 3.19312 14.7881 0 22.4958 0 30.6941C 0 38.8933 3.19146 46.6009 8.9902 52.3989C 14.7873 58.196 22.495 61.3882 30.6933 61.3882C 38.8916 61.3882 46.6001 58.1984 52.398 52.3989C 64.3637 40.4315 64.3637 20.9576 52.3972 8.9902ZM 49.449 49.449C 44.438 54.4576 37.7779 57.2163 30.6933 57.2163C 23.6087 57.2163 16.9486 54.4592 11.9401 49.449C 6.93152 44.4388 4.17281 37.7787 4.17281 30.6941C 4.17281 23.6104 6.93152 16.9494 11.9401 11.9409C 16.9511 6.93152 23.6095 4.17281 30.6933 4.17281C 37.7771 4.17281 44.4372 6.93069 49.4465 11.9409C 59.7871 22.2831 59.7871 39.1084 49.449 49.449ZM 79.3902 76.4387L 59.404 56.4558C 58.589 55.6408 57.2684 55.6408 56.4534 56.4558C 55.64 57.2709 55.64 58.5915 56.4534 59.4057L 76.4387 79.3885C 76.8466 79.7964 77.3803 80 77.914 80C 78.4477 80 78.9814 79.7964 79.3893 79.3885C 80.2044 78.5743 80.2044 77.2537 79.3902 76.4387Z"/>
<path id="path1_stroke" d="M 52.3972 8.9902L 52.2911 9.09626L 52.2911 9.09627L 52.3972 8.9902ZM 8.9902 8.9902L 9.09628 9.09626L 9.09629 9.09626L 8.9902 8.9902ZM 8.9902 52.3989L 9.09627 52.2928L 9.09626 52.2928L 8.9902 52.3989ZM 52.398 52.3989L 52.292 52.2928L 52.292 52.2928L 52.398 52.3989ZM 49.449 49.449L 49.5551 49.5551L 49.5551 49.5551L 49.449 49.449ZM 11.9401 11.9409L 11.834 11.8348L 11.834 11.8348L 11.9401 11.9409ZM 49.4465 11.9409L 49.3405 12.0469L 49.3405 12.0469L 49.4465 11.9409ZM 79.3902 76.4387L 79.4963 76.3327L 79.4962 76.3326L 79.3902 76.4387ZM 59.404 56.4558L 59.298 56.5619L 59.298 56.5619L 59.404 56.4558ZM 56.4534 56.4558L 56.3473 56.3498L 56.3472 56.3499L 56.4534 56.4558ZM 56.4534 59.4057L 56.3472 59.5117L 56.3473 59.5118L 56.4534 59.4057ZM 76.4387 79.3885L 76.5447 79.2824L 76.5447 79.2824L 76.4387 79.3885ZM 79.3893 79.3885L 79.2833 79.2824L 79.2833 79.2824L 79.3893 79.3885ZM 52.5033 8.88415C 46.6789 3.05892 38.9314 -0.15 30.6933 -0.15L 30.6933 0.15C 38.8519 0.15 46.523 3.32731 52.2911 9.09626L 52.5033 8.88415ZM 30.6933 -0.15C 22.4552 -0.15 14.7094 3.05726 8.88412 8.88415L 9.09629 9.09626C 14.8652 3.32566 22.5347 0.15 30.6933 0.15L 30.6933 -0.15ZM 8.88413 8.88415C 3.05892 14.7102 -0.15 22.456 -0.15 30.6941L 0.15 30.6941C 0.15 22.5356 3.32731 14.8661 9.09628 9.09626L 8.88413 8.88415ZM -0.15 30.6941C -0.15 38.9331 3.05726 46.6789 8.88415 52.5049L 9.09626 52.2928C 3.32567 46.523 0.15 38.8535 0.15 30.6941L -0.15 30.6941ZM 8.88414 52.5049C 14.7094 58.3302 22.4552 61.5382 30.6933 61.5382L 30.6933 61.2382C 22.5347 61.2382 14.8652 58.0618 9.09627 52.2928L 8.88414 52.5049ZM 30.6933 61.5382C 38.9314 61.5382 46.678 58.3327 52.5041 52.5049L 52.292 52.2928C 46.5222 58.0642 38.8519 61.2382 30.6933 61.2382L 30.6933 61.5382ZM 52.5041 52.5049C 64.5284 40.479 64.5284 20.9101 52.5033 8.88414L 52.2911 9.09627C 64.1991 21.005 64.1991 40.384 52.292 52.2928L 52.5041 52.5049ZM 49.343 49.3429C 44.3601 54.3234 37.7381 57.0663 30.6933 57.0663L 30.6933 57.3663C 37.8177 57.3663 44.5159 54.5917 49.5551 49.5551L 49.343 49.3429ZM 30.6933 57.0663C 23.6485 57.0663 17.0265 54.325 12.0461 49.343L 11.834 49.5551C 16.8707 54.5934 23.5689 57.3663 30.6933 57.3663L 30.6933 57.0663ZM 12.0461 49.343C 7.06572 44.3609 4.32281 37.7389 4.32281 30.6941L 4.02281 30.6941C 4.02281 37.8185 6.79732 44.5168 11.834 49.5551L 12.0461 49.343ZM 4.32281 30.6941C 4.32281 23.6501 7.06572 17.0273 12.0461 12.0469L 11.834 11.8348C 6.79732 16.8715 4.02281 23.5706 4.02281 30.6941L 4.32281 30.6941ZM 12.0461 12.047C 17.029 7.06571 23.6493 4.32281 30.6933 4.32281L 30.6933 4.02281C 23.5697 4.02281 16.8731 6.79733 11.834 11.8348L 12.0461 12.047ZM 30.6933 4.32281C 37.7373 4.32281 44.3592 7.06489 49.3405 12.0469L 49.5526 11.8348C 44.5151 6.79649 37.8168 4.02281 30.6933 4.02281L 30.6933 4.32281ZM 49.3405 12.0469C 59.6225 22.3306 59.6225 39.061 49.3429 49.343L 49.5551 49.5551C 59.9518 39.1559 59.9518 22.2356 49.5526 11.8348L 49.3405 12.0469ZM 79.4962 76.3326L 59.5101 56.3498L 59.298 56.5619L 79.2841 76.5447L 79.4962 76.3326ZM 59.5101 56.3498C 58.6365 55.4762 57.2209 55.4762 56.3473 56.3498L 56.5594 56.5619C 57.3159 55.8054 58.5415 55.8054 59.298 56.5619L 59.5101 56.3498ZM 56.3472 56.3499C 55.4754 57.2234 55.4753 58.6389 56.3472 59.5117L 56.5595 59.2997C 55.8046 58.5441 55.8046 57.3183 56.5595 56.5618L 56.3472 56.3499ZM 56.3473 59.5118L 76.3326 79.4946L 76.5447 79.2824L 56.5594 59.2996L 56.3473 59.5118ZM 76.3326 79.4946C 76.7698 79.9317 77.3421 80.15 77.914 80.15L 77.914 79.85C 77.4185 79.85 76.9234 79.6611 76.5447 79.2824L 76.3326 79.4946ZM 77.914 80.15C 78.4859 80.15 79.0582 79.9317 79.4954 79.4946L 79.2833 79.2824C 78.9046 79.6611 78.4095 79.85 77.914 79.85L 77.914 80.15ZM 79.4954 79.4946C 80.3691 78.6218 80.369 77.2062 79.4963 76.3327L 79.284 76.5447C 80.0398 77.3012 80.0397 78.5268 79.2833 79.2824L 79.4954 79.4946Z"/>
</defs>
</svg>
