<svg width="122" height="129" viewBox="0 0 122 129" version="1.1" xmlns="http://www.w3.org/2000/svg" xmlns:xlink="http://www.w3.org/1999/xlink">
<title>Vector</title>
<desc>Created using Figma</desc>
<g id="Canvas" transform="translate(388 -2329)">
<g id="Vector">
<use xlink:href="#path0_fill" transform="translate(-387.165 2329.03)" fill="#4F3199"/>
</g>
</g>
<defs>
<path id="path0_fill" d="M 27.6902 100.01C 27.7183 100.01 27.7479 100.01 27.776 100.009C 28.9407 99.9624 29.8465 98.9806 29.8001 97.8145C 29.7509 96.5866 30.1546 94.8719 32.3615 93.6791C 37.0708 91.129 39.5745 87.8783 40.0176 83.7415C 40.5563 78.7116 37.8528 72.6927 31.782 71.4423C 28.198 70.7024 24.6055 71.476 21.9232 73.562C 20.058 75.0122 18.8976 76.9097 18.8174 78.6356C 18.764 79.8003 19.6642 80.7863 20.8288 80.8397C 21.9949 80.8833 22.9795 79.993 23.033 78.8297C 23.0442 78.5737 23.4338 77.7312 24.5127 76.8928C 25.3201 76.2641 27.5636 74.8814 30.931 75.5735C 34.5642 76.3218 36.1635 80.1083 35.8217 83.29C 35.5334 85.9808 33.7962 88.1034 30.3515 89.9671C 25.856 92.4019 25.5184 96.3854 25.5831 97.9847C 25.6281 99.1198 26.5635 100.01 27.6902 100.01ZM 29.8775 103.34C 29.8775 102.175 28.9336 101.23 27.7676 101.23C 26.6015 101.23 25.6577 102.175 25.6577 103.34L 25.6577 103.812C 25.6577 104.977 26.6015 105.922 27.7676 105.922C 28.9336 105.922 29.8775 104.977 29.8775 103.812L 29.8775 103.34ZM 112.594 9.84615L 103.517 9.84615L 103.517 4.92308C 103.517 2.20835 101.308 0 98.5938 0L 24.5127 0C 21.798 0 19.5896 2.20835 19.5896 4.92308L 19.5896 60.8267C 8.19341 64.896 -2.36092e-07 75.7662 -2.36092e-07 88.5422C -2.36092e-07 101.318 8.19341 112.19 19.5896 116.258L 19.5896 123.077C 19.5896 125.792 21.798 128 24.5127 128L 98.5938 128C 101.308 128 103.517 125.792 103.517 123.077L 103.517 119.56L 106.967 119.56C 111.233 119.56 114.703 116.089 114.703 111.824L 114.703 58.233L 119.665 53.5828C 120.088 53.1833 120.33 52.6263 120.33 52.044L 120.33 17.5824C 120.33 13.3162 116.861 9.84615 112.594 9.84615ZM 4.21978 88.5422C 4.21978 74.6296 15.5386 63.3108 29.4513 63.3108C 43.3625 63.3108 54.6813 74.6296 54.6813 88.5422C 54.6813 102.455 43.3639 113.774 29.4513 113.774C 15.5386 113.774 4.21978 102.455 4.21978 88.5422ZM 99.2971 123.077C 99.2971 123.464 98.9806 123.78 98.5938 123.78L 24.5127 123.78C 24.1245 123.78 23.8094 123.464 23.8094 123.077L 23.8094 117.436C 25.6366 117.794 27.52 117.993 29.4513 117.993C 45.689 117.993 58.9011 104.781 58.9011 88.5422C 58.9011 72.3031 45.6904 59.091 29.4513 59.091C 27.52 59.091 25.638 59.2907 23.8094 59.6466L 23.8094 4.92308C 23.8094 4.53486 24.1245 4.21978 24.5127 4.21978L 98.5938 4.21978C 98.9806 4.21978 99.2971 4.53486 99.2971 4.92308L 99.2971 123.077ZM 116.11 51.1297L 111.152 55.7799C 110.726 56.1793 110.484 56.7364 110.484 57.3187L 110.484 111.824C 110.484 113.764 108.907 115.341 106.967 115.341L 103.517 115.341L 103.517 14.0659L 112.594 14.0659C 114.533 14.0659 116.11 15.6441 116.11 17.5824L 116.11 51.1297ZM 85.4646 17.5909L 37.6404 17.5909C 36.4744 17.5909 35.5306 18.5347 35.5306 19.7007C 35.5306 20.8668 36.4744 21.8106 37.6404 21.8106L 85.4646 21.8106C 86.6293 21.8106 87.5745 20.8668 87.5745 19.7007C 87.5745 18.5347 86.6293 17.5909 85.4646 17.5909ZM 85.4646 28.1403L 55.9262 28.1403C 54.7601 28.1403 53.8163 29.0841 53.8163 30.2502C 53.8163 31.4163 54.7601 32.3601 55.9262 32.3601L 85.4646 32.3601C 86.6293 32.3601 87.5745 31.4163 87.5745 30.2502C 87.5745 29.0841 86.6293 28.1403 85.4646 28.1403Z"/>
</defs>
</svg>
