<svg width="82" height="146" viewBox="0 0 82 146" version="1.1" xmlns="http://www.w3.org/2000/svg" xmlns:xlink="http://www.w3.org/1999/xlink">
<title>Vector</title>
<desc>Created using Figma</desc>
<g id="Canvas" transform="matrix(2 0 0 2 -1670 -17388)">
<g id="Vector">
<use xlink:href="#path0_fill" transform="translate(836.25 8695.48)" fill="#303030"/>
<mask id="mask0_outline_out">
<rect id="mask0_outline_inv" fill="white" x="-1" y="-1" width="41" height="72" transform="translate(836.25 8695.48)"/>
<use xlink:href="#path0_fill" fill="black" transform="translate(836.25 8695.48)"/>
</mask>
<g mask="url(#mask0_outline_out)">
<use xlink:href="#path1_stroke_2x" transform="translate(836.25 8695.48)" fill="#303030"/>
</g>
</g>
</g>
<defs>
<path id="path0_fill" d="M 37.4747 1.06061C 36.0606 -0.353535 33.851 -0.353535 32.4369 1.06061L 1.06061 32.5252C -0.353535 33.9394 -0.353535 36.149 1.06061 37.5631L 32.5252 68.9394C 33.2323 69.6465 34.1162 70 35 70C 35.8838 70 36.7677 69.6465 37.4747 68.9394C 38.8889 67.5253 38.8889 65.3157 37.4747 63.9015L 8.57323 35L 37.4747 6.09848C 38.8889 4.68434 38.8889 2.47475 37.4747 1.06061Z"/>
<path id="path1_stroke_2x" d="M 32.4369 1.06061L 31.7298 0.353499L 31.7288 0.354495L 32.4369 1.06061ZM 1.06061 32.5252L 1.76771 33.2324L 1.76871 33.2314L 1.06061 32.5252ZM 1.06061 37.5631L 0.353499 38.2702L 0.354495 38.2712L 1.06061 37.5631ZM 32.5252 68.9394L 33.2324 68.2323L 33.2314 68.2313L 32.5252 68.9394ZM 37.4747 63.9015L 38.1819 63.1944L 37.4747 63.9015ZM 8.57323 35L 7.86613 34.2929L 7.15902 35L 7.86613 35.7071L 8.57323 35ZM 37.4747 6.09848L 36.7676 5.39138L 36.7676 5.39138L 37.4747 6.09848ZM 38.1819 0.353499C 36.3772 -1.45117 33.5344 -1.45117 31.7298 0.353499L 33.144 1.76771C 34.1676 0.744096 35.744 0.744096 36.7676 1.76771L 38.1819 0.353499ZM 31.7288 0.354495L 0.352506 31.8191L 1.76871 33.2314L 33.145 1.76672L 31.7288 0.354495ZM 0.353499 31.8181C -1.45117 33.6228 -1.45117 36.4656 0.353499 38.2702L 1.76771 36.856C 0.744096 35.8324 0.744096 34.256 1.76771 33.2324L 0.353499 31.8181ZM 0.354495 38.2712L 31.8191 69.6475L 33.2314 68.2313L 1.76672 36.855L 0.354495 38.2712ZM 31.8181 69.6465C 32.7068 70.5351 33.8426 71 35 71L 35 69C 34.3897 69 33.7579 68.7578 33.2324 68.2323L 31.8181 69.6465ZM 35 71C 36.1574 71 37.2932 70.5351 38.1819 69.6465L 36.7676 68.2323C 36.2421 68.7578 35.6103 69 35 69L 35 71ZM 38.1819 69.6465C 39.9865 67.8418 39.9865 64.9991 38.1819 63.1944L 36.7676 64.6086C 37.7913 65.6322 37.7913 67.2087 36.7676 68.2323L 38.1819 69.6465ZM 38.1819 63.1944L 9.28034 34.2929L 7.86613 35.7071L 36.7676 64.6086L 38.1819 63.1944ZM 9.28034 35.7071L 38.1819 6.80559L 36.7676 5.39138L 7.86613 34.2929L 9.28034 35.7071ZM 38.1819 6.80559C 39.9865 5.00093 39.9865 2.15817 38.1819 0.353499L 36.7676 1.76771C 37.7913 2.79133 37.7913 4.36776 36.7676 5.39138L 38.1819 6.80559Z"/>
</defs>
</svg>
