<svg width="204" height="202" viewBox="0 0 204 202" version="1.1" xmlns="http://www.w3.org/2000/svg" xmlns:xlink="http://www.w3.org/1999/xlink">
<title>Vector</title>
<desc>Created using Figma</desc>
<g id="Canvas" transform="matrix(2 0 0 2 -3436 -18622)">
<g id="Vector">
<use xlink:href="#path0_fill" transform="translate(1718.98 9311.2)" fill="#1961A0"/>
</g>
</g>
<defs>
<path id="path0_fill" d="M 8.62509 89.6571L 10.4244 91.4564C 12.301 93.3341 14.7499 94.5327 17.384 94.8628C 20.018 95.1928 22.687 94.6354 24.9688 93.2788C 32.6025 97.6821 41.26 100 50.0726 100C 58.8852 100 67.5428 97.6821 75.1764 93.2788C 77.4589 94.6335 80.1273 95.1897 82.7609 94.8597C 85.3945 94.5297 87.8432 93.3323 89.7209 91.4564L 91.5202 89.6571C 93.3926 87.7774 94.5875 85.329 94.9174 82.6964C 95.2472 80.0638 94.6933 77.3963 93.3425 75.1127C 97.7267 67.4726 100.034 58.8175 100.034 50.0089C 100.034 41.2002 97.7267 32.5452 93.3425 24.9051C 94.6977 22.622 95.2532 19.9523 94.9211 17.3182C 94.5889 14.6841 93.3881 12.2358 91.5086 10.3607L 89.7209 8.61902C 87.8419 6.74932 85.3957 5.55602 82.7656 5.22622C 80.1355 4.89642 77.4704 5.44876 75.188 6.79664C 67.5685 2.34563 58.9027 1.02833e-07 50.0784 1.02833e-07C 41.2541 1.02833e-07 32.5883 2.34563 24.9688 6.79664C 22.687 5.43999 20.018 4.88263 17.384 5.21267C 14.7499 5.54271 12.301 6.74133 10.4244 8.61902L 8.62509 10.4183C 6.74828 12.2927 5.54919 14.7388 5.21711 17.3704C 4.88502 20.002 5.43885 22.6693 6.79117 24.9512C 2.34362 32.5719 3.69759e-09 41.2372 3.69759e-09 50.0608C 3.69758e-09 58.8844 2.34362 67.5497 6.79117 75.1704C 5.45617 77.4492 4.91216 80.1055 5.24385 82.7257C 5.57555 85.3459 6.76433 87.7828 8.62509 89.6571ZM 24.8765 89.0112C 24.6463 89.236 24.4037 89.4478 24.1499 89.6456C 23.9151 89.7481 23.7063 89.9018 23.5386 90.0954C 21.904 91.1693 19.9491 91.6467 18.0034 91.4471C 16.0578 91.2475 14.2406 90.3831 12.8581 88.9997L 11.0357 87.2119C 9.44532 85.6164 8.55229 83.4554 8.55229 81.2027C 8.55229 78.9499 9.44532 76.789 11.0357 75.1934L 23.1695 63.0827C 23.4939 62.7587 23.9336 62.5767 24.3921 62.5767C 24.8506 62.5767 25.2903 62.7587 25.6147 63.0827L 34.5536 72.0562C 35.5228 73.0309 36.0668 74.3495 36.0668 75.724C 36.0668 77.0985 35.5228 78.4172 34.5536 79.3918L 24.8765 89.0112ZM 39.2133 22.1138C 46.1902 19.4192 53.9205 19.4192 60.8973 22.1138C 60.7131 22.8413 60.6239 23.5895 60.632 24.3399C 60.6299 25.476 60.853 26.6012 61.2886 27.6505C 61.7241 28.6998 62.3634 29.6523 63.1695 30.4529L 69.6516 36.9351C 70.7163 37.9989 72.0411 38.7652 73.4941 39.1578C 74.9471 39.5504 76.4775 39.5555 77.9331 39.1727C 80.6296 46.1531 80.6296 53.8877 77.9331 60.8682C 76.4682 60.4745 74.9255 60.4729 73.4598 60.8637C 71.9942 61.2544 70.657 62.0236 69.5824 63.0942L 63.1003 69.5764C 62.0297 70.6509 61.2605 71.9881 60.8697 73.4538C 60.479 74.9195 60.4806 76.4621 60.8742 77.927C 53.8938 80.6235 46.1592 80.6235 39.1787 77.927C 39.5724 76.4621 39.574 74.9195 39.1832 73.4538C 38.7925 71.9881 38.0233 70.6509 36.9527 69.5764L 28.0715 60.6375C 27.2605 59.8303 26.205 59.3144 25.0698 59.1705C 23.9347 59.0265 22.7838 59.2625 21.7969 59.8416C 19.4844 53.1231 19.6151 45.8043 22.166 39.1727C 22.8957 39.3696 23.6479 39.4704 24.4036 39.4725C 25.5397 39.4747 26.665 39.2516 27.7143 38.816C 28.7636 38.3804 29.7161 37.7411 30.5167 36.9351L 36.9988 30.4529C 37.8049 29.6523 38.4442 28.6998 38.8797 27.6505C 39.3153 26.6012 39.5384 25.476 39.5363 24.3399C 39.5341 23.5842 39.4333 22.8319 39.2364 22.1023L 39.2133 22.1138ZM 27.8523 90.9489L 36.9988 81.8024C 37.2408 81.5586 37.468 81.3005 37.6793 81.0297C 45.6366 84.2039 54.5086 84.2039 62.4659 81.0297C 62.6773 81.3005 62.9045 81.5585 63.1465 81.8024L 72.2929 90.9489C 65.4608 94.6167 57.827 96.5362 50.0726 96.5362C 42.3182 96.5362 34.6844 94.6167 27.8523 90.9489ZM 89.075 87.2119L 87.2756 89.0112C 85.9082 90.3679 84.121 91.2207 82.2062 91.4302C 80.2913 91.6397 78.362 91.1936 76.7335 90.1646C 76.5161 89.868 76.2086 89.6495 75.8569 89.5418C 75.6493 89.3688 75.4417 89.1842 75.2456 88.9881L 65.5917 79.3572C 64.6225 78.3825 64.0785 77.0639 64.0785 75.6894C 64.0785 74.3149 64.6225 72.9963 65.5917 72.0216L 72.0738 65.5395C 73.0485 64.5703 74.3671 64.0263 75.7416 64.0263C 77.1161 64.0263 78.4348 64.5703 79.4094 65.5395L 89.0634 75.1934C 89.248 75.378 89.421 75.5741 89.5824 75.7701C 89.6922 76.155 89.9329 76.4895 90.263 76.7159C 91.2758 78.3436 91.7095 80.2655 91.4939 82.1705C 91.2783 84.0754 90.426 85.8518 89.075 87.2119ZM 91.0127 72.2177L 81.8662 63.0712C 81.6223 62.8292 81.3643 62.602 81.0934 62.3907C 84.2559 54.4311 84.2559 45.5636 81.0934 37.604C 81.3643 37.3927 81.6223 37.1655 81.8662 36.9235L 91.0127 27.777C 94.6814 34.6109 96.6015 42.2467 96.6015 50.0031C 96.6015 57.7595 94.6814 65.3953 91.0127 72.2292L 91.0127 72.2177ZM 75.2456 11.0066C 76.8412 9.41618 79.0021 8.52315 81.2549 8.52315C 83.5077 8.52315 85.6686 9.41618 87.2641 11.0066L 89.0634 12.8059C 90.6538 14.4014 91.5468 16.5623 91.5468 18.8151C 91.5468 21.0679 90.6538 23.2288 89.0634 24.8243L 79.4094 34.4783C 78.4348 35.4475 77.1161 35.9915 75.7416 35.9915C 74.3671 35.9915 73.0485 35.4475 72.0738 34.4783L 65.5917 28.0077C 64.6197 27.0345 64.0737 25.7153 64.0737 24.3399C 64.0737 22.9645 64.6197 21.6453 65.5917 20.6721L 75.2456 11.0066ZM 72.2929 9.08038L 63.1465 18.2269C 62.9047 18.4709 62.6774 18.7289 62.4659 18.9996C 54.5064 15.8371 45.6389 15.8371 37.6793 18.9996C 37.4678 18.7289 37.2406 18.4709 36.9988 18.2269L 27.8523 9.08038C 34.6661 5.35518 42.307 3.40282 50.0726 3.40282C 57.8382 3.40282 65.4792 5.35518 72.2929 9.08038ZM 11.0357 12.8174L 12.835 11.0181C 14.4305 9.42772 16.5915 8.53468 18.8442 8.53468C 21.097 8.53468 23.2579 9.42772 24.8535 11.0181L 34.5075 20.6721C 35.4794 21.6453 36.0254 22.9645 36.0254 24.3399C 36.0254 25.7153 35.4794 27.0345 34.5075 28.0077L 28.0253 34.4898C 27.0521 35.4618 25.7329 36.0078 24.3575 36.0078C 22.9821 36.0078 21.6629 35.4618 20.6897 34.4898L 11.0357 24.8359C 9.44532 23.2403 8.55229 21.0794 8.55229 18.8266C 8.55229 16.5739 9.44532 14.4129 11.0357 12.8174ZM 9.10952 27.8116L 18.256 36.9581C 18.5 37.1999 18.7581 37.4271 19.0288 37.6386C 15.8908 45.583 15.8908 54.4233 19.0288 62.3676L 9.14412 72.2523C 5.41995 65.4361 3.46823 57.7934 3.46823 50.0262C 3.46823 42.259 5.41995 34.6163 9.14412 27.8001L 9.10952 27.8116Z"/>
</defs>
</svg>
